<svg id="Layer_1" data-name="Layer 1" xmlns="http://www.w3.org/2000/svg" xmlns:xlink="http://www.w3.org/1999/xlink" viewBox="0 0 186.77 39.43"><defs><style>.cls-1{fill:none;}.cls-2{isolation:isolate;}.cls-3{clip-path:url(#clip-path);}.cls-4{fill:#31649a;}.cls-5{fill:#2f6195;}.cls-6{fill:#2e5e91;}.cls-7{fill:#2c5a8c;}.cls-8{fill:#2b5787;}.cls-9{fill:#295482;}.cls-10{fill:#28517d;}.cls-11{clip-path:url(#clip-path-2);}.cls-12{fill:#264e79;}.cls-13{fill:#2b598a;}.cls-14{fill:#4287d1;}.cls-15{clip-path:url(#clip-path-3);}.cls-16{clip-path:url(#clip-path-4);}.cls-17{clip-path:url(#clip-path-5);}.cls-18{clip-path:url(#clip-path-6);}.cls-19{clip-path:url(#clip-path-7);}.cls-20{clip-path:url(#clip-path-8);}.cls-21{clip-path:url(#clip-path-9);}.cls-22{clip-path:url(#clip-path-10);}.cls-23{clip-path:url(#clip-path-11);}.cls-24{clip-path:url(#clip-path-12);}.cls-25{clip-path:url(#clip-path-13);}.cls-26{clip-path:url(#clip-path-14);}.cls-27{clip-path:url(#clip-path-15);}.cls-28{clip-path:url(#clip-path-16);}.cls-29{clip-path:url(#clip-path-17);}.cls-30{clip-path:url(#clip-path-18);}.cls-31{clip-path:url(#clip-path-19);}.cls-32{clip-path:url(#clip-path-20);}.cls-33{clip-path:url(#clip-path-21);}.cls-34{fill:#274f7a;}.cls-35{clip-path:url(#clip-path-22);}.cls-36{clip-path:url(#clip-path-23);}.cls-37{clip-path:url(#clip-path-24);}.cls-38{clip-path:url(#clip-path-25);}.cls-39{clip-path:url(#clip-path-26);}.cls-40{clip-path:url(#clip-path-27);}.cls-41{clip-path:url(#clip-path-28);}.cls-42{clip-path:url(#clip-path-29);}.cls-43{clip-path:url(#clip-path-30);}.cls-44{clip-path:url(#clip-path-31);}.cls-45{clip-path:url(#clip-path-32);}.cls-46{clip-path:url(#clip-path-33);}</style><clipPath id="clip-path" transform="translate(-7.01 -0.46)"><path class="cls-1" d="M43.85,31.57l-2-2a2.13,2.13,0,0,0,3,0,4.53,4.53,0,0,0,1-1.64,11,11,0,0,0,.55-2.33,22.42,22.42,0,0,0,.17-2.76l2,2a22.42,22.42,0,0,1-.17,2.76,11,11,0,0,1-.55,2.33,4.53,4.53,0,0,1-1,1.64A2.13,2.13,0,0,1,43.85,31.57Z"/></clipPath><clipPath id="clip-path-2" transform="translate(-7.01 -0.46)"><path class="cls-1" d="M41.67,38.3l-2-2A9,9,0,0,1,38,33.88a17.63,17.63,0,0,1-1.43-4.52,31.46,31.46,0,0,1-.5-5.85l2,2a31.46,31.46,0,0,0,.5,5.85A17.63,17.63,0,0,0,40,35.9,9,9,0,0,0,41.67,38.3Z"/></clipPath><clipPath id="clip-path-3" transform="translate(-7.01 -0.46)"><path class="cls-1" d="M13.48,31.8l-2-2a2.77,2.77,0,0,0,1.92,1,2.07,2.07,0,0,0,.89-0.2A2,2,0,0,0,15,29.9a3.58,3.58,0,0,0,.51-1.21,7.54,7.54,0,0,0,.19-1.81,5.6,5.6,0,0,0-.23-1.71l2,2a5.6,5.6,0,0,1,.23,1.71,7.54,7.54,0,0,1-.19,1.81A3.58,3.58,0,0,1,17,31.92a2,2,0,0,1-.76.65,2.07,2.07,0,0,1-.89.2A2.77,2.77,0,0,1,13.48,31.8Z"/></clipPath><clipPath id="clip-path-4" transform="translate(-7.01 -0.46)"><path class="cls-1" d="M11.15,37.88l-2-2A10.79,10.79,0,0,1,7,32.71l2,2A10.79,10.79,0,0,0,11.15,37.88Z"/></clipPath><clipPath id="clip-path-5" transform="translate(-7.01 -0.46)"><path class="cls-1" d="M17.51,27.2l-2-2a4.71,4.71,0,0,0-.68-1.28l2,2A4.71,4.71,0,0,1,17.51,27.2Z"/></clipPath><clipPath id="clip-path-6" transform="translate(-7.01 -0.46)"><path class="cls-1" d="M14.41,23.45l2,2a5,5,0,0,1,.4.45l-2-2A5,5,0,0,0,14.41,23.45Z"/></clipPath><clipPath id="clip-path-7" transform="translate(-7.01 -0.46)"><path class="cls-1" d="M17,17.15l2,2a6.44,6.44,0,0,0-.58-0.52c-0.62-.49-1.22-0.93-1.8-1.33l-2-2c0.58,0.4,1.18.85,1.8,1.33A6.44,6.44,0,0,1,17,17.15Z"/></clipPath><clipPath id="clip-path-8" transform="translate(-7.01 -0.46)"><path class="cls-1" d="M15.12,16.16l-2-2a4.64,4.64,0,0,0,.43.38c0.31,0.25.67,0.5,1.08,0.77l2,2c-0.4-.27-0.76-0.52-1.08-0.77A4.64,4.64,0,0,1,15.12,16.16Z"/></clipPath><clipPath id="clip-path-9" transform="translate(-7.01 -0.46)"><path class="cls-1" d="M16.05,8.43l2,2a6.1,6.1,0,0,1,1.35,2.22l-2-2A6.1,6.1,0,0,0,16.05,8.43Z"/></clipPath><clipPath id="clip-path-10" transform="translate(-7.01 -0.46)"><path class="cls-1" d="M18.2,2.3l2,2a7,7,0,0,0-.79-0.69,5,5,0,0,0-2.94-1.11l-2-2A5,5,0,0,1,17.4,1.61,7,7,0,0,1,18.2,2.3Z"/></clipPath><clipPath id="clip-path-11" transform="translate(-7.01 -0.46)"><path class="cls-1" d="M12.57,22.47l-2-2a7.52,7.52,0,0,1-1.32-1.87,11.53,11.53,0,0,1-1-2.86,18.94,18.94,0,0,1-.36-4.08,19.29,19.29,0,0,1,.58-5.06A11.14,11.14,0,0,1,10,3.11a6.07,6.07,0,0,1,2.11-2A5,5,0,0,1,14.46.51l2,2a5,5,0,0,0-2.38.63,6.07,6.07,0,0,0-2.11,2,11.14,11.14,0,0,0-1.52,3.46,19.29,19.29,0,0,0-.58,5.06,18.94,18.94,0,0,0,.36,4.08,11.53,11.53,0,0,0,1,2.86A7.52,7.52,0,0,0,12.57,22.47Z"/></clipPath><clipPath id="clip-path-12" transform="translate(-7.01 -0.46)"><path class="cls-1" d="M61.88,31.51l-2-2A4.59,4.59,0,0,0,62,29a4.89,4.89,0,0,0,1.8-1.73A10.18,10.18,0,0,0,65,24l2,2a10.18,10.18,0,0,1-1.25,3.21A4.89,4.89,0,0,1,64,31,4.59,4.59,0,0,1,61.88,31.51Z"/></clipPath><clipPath id="clip-path-13" transform="translate(-7.01 -0.46)"><path class="cls-1" d="M63.07,10l2,2a6,6,0,0,1,.74.91,10,10,0,0,1,1.25,3.16,22.6,22.6,0,0,1,.46,5,22.58,22.58,0,0,1-.47,5l-2-2a22.58,22.58,0,0,0,.47-5,22.6,22.6,0,0,0-.46-5,10,10,0,0,0-1.25-3.16A6,6,0,0,0,63.07,10Z"/></clipPath><clipPath id="clip-path-14" transform="translate(-7.01 -0.46)"><path class="cls-1" d="M65.49,3.65l2,2A7.15,7.15,0,0,0,65.65,4.3a7.84,7.84,0,0,0-3.55-.87l-2-2a7.84,7.84,0,0,1,3.55.87A7.15,7.15,0,0,1,65.49,3.65Z"/></clipPath><clipPath id="clip-path-15" transform="translate(-7.01 -0.46)"><path class="cls-1" d="M118.74,37.88l-2-2a10.64,10.64,0,0,1-2.11-3.16l2,2A10.64,10.64,0,0,0,118.74,37.88Z"/></clipPath><clipPath id="clip-path-16" transform="translate(-7.01 -0.46)"><path class="cls-1" d="M121,31.78l-2-2a2.82,2.82,0,0,0,1.94,1,2.07,2.07,0,0,0,.89-0.2,2,2,0,0,0,.76-0.65,3.58,3.58,0,0,0,.51-1.21,7.08,7.08,0,0,0,.2-1.81,5.32,5.32,0,0,0-.24-1.71,4.47,4.47,0,0,0-.68-1.28,5,5,0,0,0-.4-0.45l2,2a5,5,0,0,1,.4.45,4.47,4.47,0,0,1,.68,1.28,5.32,5.32,0,0,1,.24,1.71,7.08,7.08,0,0,1-.2,1.81,3.58,3.58,0,0,1-.51,1.21,2,2,0,0,1-.76.65,2.07,2.07,0,0,1-.89.2A2.82,2.82,0,0,1,121,31.78Z"/></clipPath><clipPath id="clip-path-17" transform="translate(-7.01 -0.46)"><path class="cls-1" d="M122.71,16.15l-2-2a5.38,5.38,0,0,0,.44.4c0.32,0.25.68,0.5,1.08,0.77,0.58,0.4,1.18.85,1.8,1.33a6.31,6.31,0,0,1,.61.54l2,2a6.31,6.31,0,0,0-.61-0.54c-0.62-.49-1.22-0.93-1.8-1.33-0.4-.27-0.75-0.52-1.08-0.77A5.38,5.38,0,0,1,122.71,16.15Z"/></clipPath><clipPath id="clip-path-18" transform="translate(-7.01 -0.46)"><path class="cls-1" d="M123.67,8.45l2,2A6,6,0,0,1,127,12.66l-2-2A6,6,0,0,0,123.67,8.45Z"/></clipPath><clipPath id="clip-path-19" transform="translate(-7.01 -0.46)"><path class="cls-1" d="M125.81,2.31l2,2a7,7,0,0,0-.81-0.7,5,5,0,0,0-2.93-1.11l-2-2A5,5,0,0,1,125,1.61,7,7,0,0,1,125.81,2.31Z"/></clipPath><clipPath id="clip-path-20" transform="translate(-7.01 -0.46)"><path class="cls-1" d="M120.19,22.5l-2-2a7.44,7.44,0,0,1-1.35-1.9,11.9,11.9,0,0,1-1-2.86,19.53,19.53,0,0,1-.36-4.08,19.29,19.29,0,0,1,.58-5.06,11.58,11.58,0,0,1,1.52-3.46,6.09,6.09,0,0,1,2.12-2,5,5,0,0,1,2.38-.63l2,2a5,5,0,0,0-2.38.63,6.09,6.09,0,0,0-2.12,2,11.58,11.58,0,0,0-1.52,3.46,19.29,19.29,0,0,0-.58,5.06,19.53,19.53,0,0,0,.36,4.08,11.9,11.9,0,0,0,1,2.86A7.44,7.44,0,0,0,120.19,22.5Z"/></clipPath><clipPath id="clip-path-21" transform="translate(-7.01 -0.46)"><path class="cls-1" d="M104.85,38.36l-2-2a8,8,0,0,1-.75-0.88,11,11,0,0,1-1.45-2.83,17.57,17.57,0,0,1-.89-3.79l2,2a17.57,17.57,0,0,0,.89,3.79,11,11,0,0,0,1.45,2.83A7.94,7.94,0,0,0,104.85,38.36Z"/></clipPath><clipPath id="clip-path-22" transform="translate(-7.01 -0.46)"><path class="cls-1" d="M106.89,32.2l-2-2a1.73,1.73,0,0,0,1.25.56,2.12,2.12,0,0,0,1.78-1.3,7.83,7.83,0,0,0,.76-3.86,9.38,9.38,0,0,0-.3-2.61,5,5,0,0,0-.81-1.68,3.41,3.41,0,0,0-.27-0.31l2,2a3.41,3.41,0,0,1,.27.31,5,5,0,0,1,.81,1.68,9.38,9.38,0,0,1,.3,2.61,7.83,7.83,0,0,1-.76,3.86,2.12,2.12,0,0,1-1.78,1.3A1.73,1.73,0,0,1,106.89,32.2Z"/></clipPath><clipPath id="clip-path-23" transform="translate(-7.01 -0.46)"><path class="cls-1" d="M109.88,15.3l2,2a4.86,4.86,0,0,0-.88-0.7,4.44,4.44,0,0,0-2.4-.7,6,6,0,0,0-.85.07l-2-2a6,6,0,0,1,.85-0.07,4.44,4.44,0,0,1,2.4.7A4.86,4.86,0,0,1,109.88,15.3Z"/></clipPath><clipPath id="clip-path-24" transform="translate(-7.01 -0.46)"><path class="cls-1" d="M106.91,16.27l-2-2a2.89,2.89,0,0,1,.85-0.28l2,2A2.89,2.89,0,0,0,106.91,16.27Z"/></clipPath><clipPath id="clip-path-25" transform="translate(-7.01 -0.46)"><path class="cls-1" d="M88.48,31.13l-2-2,0.11,0.1a2.76,2.76,0,0,0,3.94,0A6.91,6.91,0,0,0,92,26.94a14.38,14.38,0,0,0,1-3.49l2,2a14.38,14.38,0,0,1-1,3.49,6.91,6.91,0,0,1-1.53,2.28,2.76,2.76,0,0,1-3.94,0Z"/></clipPath><clipPath id="clip-path-26" transform="translate(-7.01 -0.46)"><path class="cls-1" d="M90.69,9.14l2,2a6.91,6.91,0,0,1,1.39,2.12,14.88,14.88,0,0,1,1,3.44A24.23,24.23,0,0,1,95.44,21a25.16,25.16,0,0,1-.37,4.43l-2-2A25.16,25.16,0,0,0,93.42,19a24.23,24.23,0,0,0-.35-4.32,14.88,14.88,0,0,0-1-3.44A6.91,6.91,0,0,0,90.69,9.14Z"/></clipPath><clipPath id="clip-path-27" transform="translate(-7.01 -0.46)"><path class="cls-1" d="M86.19,37.92l-2-2a12.24,12.24,0,0,1-2.24-3.22,23.92,23.92,0,0,1-1.92-6,39.15,39.15,0,0,1-.69-7.7,38.6,38.6,0,0,1,.71-7.7A22.77,22.77,0,0,1,82,5.47,10.89,10.89,0,0,1,84.9,1.76a5.87,5.87,0,0,1,7.38,0,8.27,8.27,0,0,1,.83.73l2,2a8.26,8.26,0,0,0-.83-0.73,5.87,5.87,0,0,0-7.38,0A10.89,10.89,0,0,0,84,7.49,22.77,22.77,0,0,0,82,13.34a38.6,38.6,0,0,0-.71,7.7,39.15,39.15,0,0,0,.69,7.7,23.92,23.92,0,0,0,1.92,6A12.24,12.24,0,0,0,86.19,37.92Z"/></clipPath><clipPath id="clip-path-28" transform="translate(-7.01 -0.46)"><path class="cls-1" d="M157.41,37.88l-2-2a10.79,10.79,0,0,1-2.12-3.16l2,2A10.79,10.79,0,0,0,157.41,37.88Z"/></clipPath><clipPath id="clip-path-29" transform="translate(-7.01 -0.46)"><path class="cls-1" d="M159.74,31.8l-2-2a2.77,2.77,0,0,0,1.92,1,2.07,2.07,0,0,0,.89-0.2,2,2,0,0,0,.76-0.65,3.58,3.58,0,0,0,.51-1.21,7.54,7.54,0,0,0,.19-1.81,5.34,5.34,0,0,0-.23-1.71,4.47,4.47,0,0,0-.68-1.28,5,5,0,0,0-.4-0.45l2,2a5,5,0,0,1,.4.45,4.47,4.47,0,0,1,.68,1.28A5.34,5.34,0,0,1,164,28.9a7.54,7.54,0,0,1-.19,1.81,3.58,3.58,0,0,1-.51,1.21,2,2,0,0,1-.76.65,2.07,2.07,0,0,1-.89.2A2.77,2.77,0,0,1,159.74,31.8Z"/></clipPath><clipPath id="clip-path-30" transform="translate(-7.01 -0.46)"><path class="cls-1" d="M161.37,16.15l-2-2a5.38,5.38,0,0,0,.44.4c0.32,0.25.68,0.5,1.08,0.77,0.58,0.4,1.18.85,1.8,1.33a6.44,6.44,0,0,1,.58.52l2,2a6.44,6.44,0,0,0-.58-0.52c-0.62-.49-1.22-0.93-1.8-1.33-0.4-.27-0.75-0.52-1.08-0.77A5.38,5.38,0,0,1,161.37,16.15Z"/></clipPath><clipPath id="clip-path-31" transform="translate(-7.01 -0.46)"><path class="cls-1" d="M162.31,8.43l2,2a6.1,6.1,0,0,1,1.35,2.22l-2-2A6.1,6.1,0,0,0,162.31,8.43Z"/></clipPath><clipPath id="clip-path-32" transform="translate(-7.01 -0.46)"><path class="cls-1" d="M164.46,2.3l2,2a7,7,0,0,0-.79-0.69,5,5,0,0,0-2.94-1.11l-2-2a5,5,0,0,1,2.94,1.11A7,7,0,0,1,164.46,2.3Z"/></clipPath><clipPath id="clip-path-33" transform="translate(-7.01 -0.46)"><path class="cls-1" d="M158.83,22.47l-2-2a7.53,7.53,0,0,1-1.32-1.87,11.91,11.91,0,0,1-1-2.86,19.53,19.53,0,0,1-.36-4.08,19.29,19.29,0,0,1,.58-5.06,11.14,11.14,0,0,1,1.52-3.46,6.07,6.07,0,0,1,2.11-2,5,5,0,0,1,2.38-.63l2,2a5,5,0,0,0-2.38.63,6.07,6.07,0,0,0-2.11,2,11.14,11.14,0,0,0-1.52,3.46,19.29,19.29,0,0,0-.58,5.06,19.53,19.53,0,0,0,.36,4.08,11.91,11.91,0,0,0,1,2.86A7.52,7.52,0,0,0,158.83,22.47Z"/></clipPath></defs><title>navlogo</title><g class="cls-2"><g class="cls-2"><g class="cls-3"><g class="cls-2"><path class="cls-4" d="M43.85,31.57l-2-2a2.1,2.1,0,0,0,.49.36l2,2a2.1,2.1,0,0,1-.49-0.36" transform="translate(-7.01 -0.46)"/><path class="cls-5" d="M44.35,31.93l-2-2a2,2,0,0,0,.38.15l2,2a2,2,0,0,1-.38-0.15" transform="translate(-7.01 -0.46)"/><path class="cls-6" d="M44.73,32.08l-2-2,0.34,0.07,2,2-0.34-.07" transform="translate(-7.01 -0.46)"/><path class="cls-7" d="M45.07,32.15l-2-2h0.36l2,2H45.07" transform="translate(-7.01 -0.46)"/><path class="cls-8" d="M45.44,32.16l-2-2,0.35,0,2,2-0.35,0" transform="translate(-7.01 -0.46)"/><path class="cls-9" d="M45.78,32.12l-2-2A2,2,0,0,0,44.12,30l2,2a2,2,0,0,1-.35.11" transform="translate(-7.01 -0.46)"/><path class="cls-10" d="M46.13,32l-2-2a2.06,2.06,0,0,0,.67-0.44,4.53,4.53,0,0,0,1-1.64,11,11,0,0,0,.55-2.33,22.42,22.42,0,0,0,.17-2.76l2,2a22.42,22.42,0,0,1-.17,2.76,11,11,0,0,1-.55,2.33,4.53,4.53,0,0,1-1,1.64,2.06,2.06,0,0,1-.67.44" transform="translate(-7.01 -0.46)"/></g></g></g><g class="cls-2"><g class="cls-11"><g class="cls-2"><path class="cls-10" d="M41.67,38.3l-2-2A9,9,0,0,1,38,33.88a17.63,17.63,0,0,1-1.43-4.52,31.46,31.46,0,0,1-.5-5.85l2,2a31.46,31.46,0,0,0,.5,5.85A17.63,17.63,0,0,0,40,35.9a9,9,0,0,0,1.67,2.4" transform="translate(-7.01 -0.46)"/></g></g></g><polygon class="cls-12" points="41.52 24.38 39.5 22.36 39.52 0.95 41.54 2.97 41.52 24.38"/><polygon class="cls-13" points="41.54 2.97 39.52 0.95 43.63 0.95 45.64 2.97 41.54 2.97"/><path class="cls-14" d="M52.66,3.43l0,22.11a30.66,30.66,0,0,1-.53,5.85,17.3,17.3,0,0,1-1.48,4.52,8.63,8.63,0,0,1-2.32,2.93,4.85,4.85,0,0,1-6,0A8.42,8.42,0,0,1,40,35.9a17.63,17.63,0,0,1-1.43-4.52,31.46,31.46,0,0,1-.5-5.85l0-22.11h4.07l0,21.41a20.74,20.74,0,0,0,.18,2.76,11.49,11.49,0,0,0,.55,2.33,4.26,4.26,0,0,0,1,1.64,2.13,2.13,0,0,0,3,0,4.53,4.53,0,0,0,1-1.64,11,11,0,0,0,.55-2.33,22.42,22.42,0,0,0,.17-2.76l0-21.41h4.1Z" transform="translate(-7.01 -0.46)"/><polygon class="cls-12" points="31.05 25.08 29.04 23.06 29.06 0.95 31.08 2.97 31.05 25.08"/><polygon class="cls-13" points="31.08 2.97 29.06 0.95 33.14 0.95 35.16 2.97 31.08 2.97"/></g><g class="cls-2"><polygon class="cls-12" points="20.43 38.47 18.42 36.45 18.45 8.28 20.47 10.29 20.43 38.47"/><polygon class="cls-14" points="29.38 2.97 29.37 10.29 24.57 10.29 24.53 38.47 20.43 38.47 20.47 10.29 15.67 10.29 15.68 2.97 29.38 2.97"/><polygon class="cls-12" points="15.67 10.29 13.66 8.28 13.66 0.95 15.68 2.97 15.67 10.29"/><polygon class="cls-13" points="15.68 2.97 13.66 0.95 27.36 0.95 29.38 2.97 15.68 2.97"/></g><g class="cls-2"><g class="cls-2"><g class="cls-15"><g class="cls-2"><path class="cls-4" d="M13.48,31.8l-2-2a3.84,3.84,0,0,0,.92.7l2,2a3.84,3.84,0,0,1-.92-0.7" transform="translate(-7.01 -0.46)"/><path class="cls-5" d="M14.39,32.5l-2-2a2.4,2.4,0,0,0,.47.19l2,2a2.4,2.4,0,0,1-.47-0.19" transform="translate(-7.01 -0.46)"/><path class="cls-6" d="M14.86,32.69l-2-2,0.33,0.06,2,2-0.33-.06" transform="translate(-7.01 -0.46)"/><path class="cls-7" d="M15.19,32.75l-2-2h0.3l2,2h-0.3" transform="translate(-7.01 -0.46)"/><path class="cls-8" d="M15.49,32.76l-2-2,0.33,0,2,2-0.33,0" transform="translate(-7.01 -0.46)"/><path class="cls-9" d="M15.82,32.72l-2-2a2.06,2.06,0,0,0,.36-0.11l2,2a2.06,2.06,0,0,1-.36.11" transform="translate(-7.01 -0.46)"/><path class="cls-10" d="M16.18,32.61l-2-2,0.11,0A2,2,0,0,0,15,29.9a3.58,3.58,0,0,0,.51-1.21,7.54,7.54,0,0,0,.19-1.81,5.6,5.6,0,0,0-.23-1.71l2,2a5.6,5.6,0,0,1,.23,1.71,7.54,7.54,0,0,1-.19,1.81A3.58,3.58,0,0,1,17,31.92a2,2,0,0,1-.76.65l-0.11,0" transform="translate(-7.01 -0.46)"/></g></g></g><g class="cls-2"><g class="cls-16"><g class="cls-2"><path class="cls-10" d="M11.15,37.88l-2-2A10.79,10.79,0,0,1,7,32.71l2,2a10.79,10.79,0,0,0,2.12,3.16" transform="translate(-7.01 -0.46)"/></g></g></g><g class="cls-2"><g class="cls-17"><g class="cls-2"><path class="cls-10" d="M17.51,27.2l-2-2a4.71,4.71,0,0,0-.68-1.28l2,2a4.71,4.71,0,0,1,.68,1.28" transform="translate(-7.01 -0.46)"/></g></g></g><g class="cls-2"><g class="cls-18"><g class="cls-2"><path class="cls-10" d="M16.83,25.92l-2-2a5,5,0,0,0-.4-0.45l2,2a5,5,0,0,1,.4.45" transform="translate(-7.01 -0.46)"/></g></g></g><polygon class="cls-12" points="2.02 34.26 0 32.24 2.7 26.52 4.71 28.54 2.02 34.26"/><g class="cls-2"><g class="cls-19"><g class="cls-2"><path class="cls-4" d="M16.64,17.32l-2-2c0.58,0.4,1.18.85,1.8,1.33a6.44,6.44,0,0,1,.58.52l2,2a6.44,6.44,0,0,0-.58-0.52c-0.62-.49-1.22-0.93-1.8-1.33" transform="translate(-7.01 -0.46)"/></g></g></g><g class="cls-2"><g class="cls-20"><g class="cls-2"><path class="cls-4" d="M15.12,16.16l-2-2a4.64,4.64,0,0,0,.43.38c0.31,0.25.67,0.5,1.08,0.77l2,2c-0.4-.27-0.76-0.52-1.08-0.77a4.64,4.64,0,0,1-.43-0.38" transform="translate(-7.01 -0.46)"/></g></g></g><g class="cls-2"><g class="cls-21"><g class="cls-2"><path class="cls-10" d="M19.42,12.66l-2-2a6.1,6.1,0,0,0-1.35-2.22l2,2a6.1,6.1,0,0,1,1.35,2.22" transform="translate(-7.01 -0.46)"/></g></g></g><g class="cls-2"><g class="cls-22"><g class="cls-2"><path class="cls-7" d="M16.48,2.52l-2-2,0.41,0,2,2-0.41,0" transform="translate(-7.01 -0.46)"/><path class="cls-6" d="M16.89,2.55l-2-2a4.1,4.1,0,0,1,.66.13l2,2a4.1,4.1,0,0,0-.66-0.13" transform="translate(-7.01 -0.46)"/><path class="cls-5" d="M17.56,2.67l-2-2a5,5,0,0,1,1,.39l2,2a5,5,0,0,0-1-.39" transform="translate(-7.01 -0.46)"/><path class="cls-4" d="M18.53,3.07l-2-2a6.84,6.84,0,0,1,.89.56,7,7,0,0,1,.79.69l2,2a7,7,0,0,0-.79-0.69,6.84,6.84,0,0,0-.89-0.56" transform="translate(-7.01 -0.46)"/></g></g></g><g class="cls-2"><g class="cls-23"><g class="cls-2"><path class="cls-10" d="M12.57,22.47l-2-2a7.52,7.52,0,0,1-1.32-1.87,11.53,11.53,0,0,1-1-2.86,18.94,18.94,0,0,1-.36-4.08,19.29,19.29,0,0,1,.58-5.06A11.14,11.14,0,0,1,10,3.11a6.07,6.07,0,0,1,2.11-2A5.72,5.72,0,0,1,12.66.87l2,2a5.72,5.72,0,0,0-.57.27,6.07,6.07,0,0,0-2.11,2,11.14,11.14,0,0,0-1.52,3.46,19.29,19.29,0,0,0-.58,5.06,18.94,18.94,0,0,0,.36,4.08,11.53,11.53,0,0,0,1,2.86,7.52,7.52,0,0,0,1.32,1.87" transform="translate(-7.01 -0.46)"/><path class="cls-9" d="M14.68,2.88l-2-2A5,5,0,0,1,13.53.6l2,2a5,5,0,0,0-.88.27" transform="translate(-7.01 -0.46)"/><path class="cls-8" d="M15.55,2.62l-2-2A4.64,4.64,0,0,1,14.26.51l2,2a4.64,4.64,0,0,0-.72.09" transform="translate(-7.01 -0.46)"/><path class="cls-7" d="M16.28,2.53l-2-2h0.21l2,2H16.28" transform="translate(-7.01 -0.46)"/></g></g></g><path class="cls-14" d="M16.48,2.52a5,5,0,0,1,2.94,1.11A9.41,9.41,0,0,1,22,6.89l-2.62,5.77A6.08,6.08,0,0,0,18,10.42a2.44,2.44,0,0,0-1.64-.83,2.49,2.49,0,0,0-.83.15,1.74,1.74,0,0,0-.76.58,3.54,3.54,0,0,0-.56,1.11A5.45,5.45,0,0,0,14,13.16a5.51,5.51,0,0,0,.18,1.51,3.4,3.4,0,0,0,.53,1.05,4.79,4.79,0,0,0,.83.83c0.31,0.25.67,0.5,1.08,0.77,0.58,0.4,1.18.85,1.8,1.33a7.62,7.62,0,0,1,1.7,1.92,11.5,11.5,0,0,1,1.27,3A16.74,16.74,0,0,1,21.9,28a22.75,22.75,0,0,1-.55,5.29A12.43,12.43,0,0,1,19.89,37a6.43,6.43,0,0,1-2.09,2.16,4.76,4.76,0,0,1-2.42.7,5.69,5.69,0,0,1-3.52-1.33A10,10,0,0,1,9,34.72L11.73,29a8.07,8.07,0,0,0,1.64,2.69,2.86,2.86,0,0,0,2,1.07,2.07,2.07,0,0,0,.89-0.2A2,2,0,0,0,17,31.92a3.58,3.58,0,0,0,.51-1.21,7.54,7.54,0,0,0,.19-1.81,5.6,5.6,0,0,0-.23-1.71,4.71,4.71,0,0,0-.68-1.28,5.63,5.63,0,0,0-1.11-1.05c-0.44-.31-0.94-0.66-1.5-1a12.19,12.19,0,0,1-1.59-1.3,7.42,7.42,0,0,1-1.39-1.93,11.53,11.53,0,0,1-1-2.86,18.94,18.94,0,0,1-.36-4.08,19.29,19.29,0,0,1,.58-5.06A11.14,11.14,0,0,1,12,5.13a6.07,6.07,0,0,1,2.11-2A5,5,0,0,1,16.48,2.52Z" transform="translate(-7.01 -0.46)"/></g><g class="cls-2"><g class="cls-2"><g class="cls-24"><g class="cls-2"><path class="cls-7" d="M61.88,31.51l-2-2h0.2l2,2h-0.2" transform="translate(-7.01 -0.46)"/><path class="cls-8" d="M62.08,31.51l-2-2a4.4,4.4,0,0,0,.69-0.08l2,2a4.4,4.4,0,0,1-.69.08" transform="translate(-7.01 -0.46)"/><path class="cls-9" d="M62.77,31.42l-2-2a4.64,4.64,0,0,0,.81-0.25l2,2a4.64,4.64,0,0,1-.81.25" transform="translate(-7.01 -0.46)"/><path class="cls-10" d="M63.58,31.18l-2-2L62,29a4.89,4.89,0,0,0,1.8-1.73A10.18,10.18,0,0,0,65,24l2,2a10.18,10.18,0,0,1-1.25,3.21A4.89,4.89,0,0,1,64,31l-0.42.19" transform="translate(-7.01 -0.46)"/></g></g></g><polygon class="cls-13" points="52.92 31.05 50.9 29.03 52.85 29.03 54.86 31.05 52.92 31.05"/><g class="cls-2"><g class="cls-25"><g class="cls-2"><path class="cls-10" d="M67.06,26l-2-2a22.58,22.58,0,0,0,.47-5,22.6,22.6,0,0,0-.46-5,10,10,0,0,0-1.25-3.16A6,6,0,0,0,63.07,10l2,2a6,6,0,0,1,.74.91,10,10,0,0,1,1.25,3.16,22.6,22.6,0,0,1,.46,5,22.58,22.58,0,0,1-.47,5" transform="translate(-7.01 -0.46)"/></g></g></g><g class="cls-2"><g class="cls-26"><g class="cls-2"><path class="cls-7" d="M62.1,3.43l-2-2a7.47,7.47,0,0,1,.81,0l2,2a7.47,7.47,0,0,0-.81,0" transform="translate(-7.01 -0.46)"/><path class="cls-6" d="M62.91,3.48l-2-2a7.57,7.57,0,0,1,1.22.24l2,2a7.57,7.57,0,0,0-1.22-.24" transform="translate(-7.01 -0.46)"/><path class="cls-5" d="M64.13,3.71l-2-2a8.53,8.53,0,0,1,1.52.59l0.11,0.05,2,2L65.65,4.3a8.53,8.53,0,0,0-1.52-.59" transform="translate(-7.01 -0.46)"/><path class="cls-4" d="M65.76,4.36l-2-2a7.2,7.2,0,0,1,1.75,1.31l2,2a7.2,7.2,0,0,0-1.75-1.31" transform="translate(-7.01 -0.46)"/></g></g></g><path class="cls-14" d="M71,12.66a35.93,35.93,0,0,1,.83,8.42A34,34,0,0,1,71,29.13a19.3,19.3,0,0,1-2.18,5.57,9.52,9.52,0,0,1-3.06,3.21,6.67,6.67,0,0,1-3.46,1H55.92l0-35.5H62.1a7.84,7.84,0,0,1,3.55.87,8.34,8.34,0,0,1,3.12,2.91A17,17,0,0,1,71,12.66ZM67.06,26a22.58,22.58,0,0,0,.47-5,22.6,22.6,0,0,0-.46-5,10,10,0,0,0-1.25-3.16,4.87,4.87,0,0,0-1.77-1.68A4.53,4.53,0,0,0,62,10.75H60l0,20.76h1.94A4.59,4.59,0,0,0,64,31a4.89,4.89,0,0,0,1.8-1.73A10.18,10.18,0,0,0,67.06,26" transform="translate(-7.01 -0.46)"/><polygon class="cls-12" points="48.91 38.47 46.89 36.45 46.94 0.95 48.95 2.97 48.91 38.47"/><polygon class="cls-13" points="48.95 2.97 46.94 0.95 53.07 0.95 55.09 2.97 48.95 2.97"/></g><g class="cls-2"><polygon class="cls-14" points="71.64 2.97 71.59 38.47 67.47 38.47 67.51 2.97 71.64 2.97"/><polygon class="cls-12" points="67.47 38.47 65.45 36.45 65.49 0.95 67.51 2.97 67.47 38.47"/><polygon class="cls-13" points="67.51 2.97 65.49 0.95 69.62 0.95 71.64 2.97 67.51 2.97"/></g><g class="cls-2"><g class="cls-2"><g class="cls-27"><g class="cls-2"><path class="cls-10" d="M118.74,37.88l-2-2a10.64,10.64,0,0,1-2.11-3.16l2,2a10.64,10.64,0,0,0,2.11,3.16" transform="translate(-7.01 -0.46)"/></g></g></g><g class="cls-2"><g class="cls-28"><g class="cls-2"><path class="cls-4" d="M121,31.78l-2-2a4,4,0,0,0,.95.72l2,2a4,4,0,0,1-.95-0.72" transform="translate(-7.01 -0.46)"/><path class="cls-5" d="M122,32.5l-2-2a2.41,2.41,0,0,0,.47.19l2,2A2.41,2.41,0,0,1,122,32.5" transform="translate(-7.01 -0.46)"/><path class="cls-6" d="M122.46,32.69l-2-2,0.32,0.06,2,2-0.32-.06" transform="translate(-7.01 -0.46)"/><path class="cls-7" d="M122.78,32.75l-2-2h0.3l2,2h-0.3" transform="translate(-7.01 -0.46)"/><path class="cls-8" d="M123.08,32.76l-2-2,0.33,0,2,2-0.33,0" transform="translate(-7.01 -0.46)"/><path class="cls-9" d="M123.41,32.72l-2-2a2.06,2.06,0,0,0,.36-0.11l2,2a2.06,2.06,0,0,1-.36.11" transform="translate(-7.01 -0.46)"/><path class="cls-10" d="M123.77,32.61l-2-2,0.11,0a2,2,0,0,0,.76-0.65,3.58,3.58,0,0,0,.51-1.21,7.08,7.08,0,0,0,.2-1.81,5.32,5.32,0,0,0-.24-1.71,4.47,4.47,0,0,0-.68-1.28,5,5,0,0,0-.4-0.45l2,2a5,5,0,0,1,.4.45,4.47,4.47,0,0,1,.68,1.28,5.32,5.32,0,0,1,.24,1.71,7.08,7.08,0,0,1-.2,1.81,3.58,3.58,0,0,1-.51,1.21,2,2,0,0,1-.76.65l-0.11,0" transform="translate(-7.01 -0.46)"/></g></g></g><polygon class="cls-12" points="109.62 34.26 107.6 32.24 110.29 26.52 112.31 28.54 109.62 34.26"/><g class="cls-2"><g class="cls-29"><g class="cls-2"><path class="cls-4" d="M122.71,16.15l-2-2a5.38,5.38,0,0,0,.44.4c0.32,0.25.68,0.5,1.08,0.77,0.58,0.4,1.18.85,1.8,1.33a6.31,6.31,0,0,1,.61.54l2,2a6.31,6.31,0,0,0-.61-0.54c-0.62-.49-1.22-0.93-1.8-1.33-0.4-.27-0.75-0.52-1.08-0.77a5.38,5.38,0,0,1-.44-0.4" transform="translate(-7.01 -0.46)"/></g></g></g><g class="cls-2"><g class="cls-30"><g class="cls-2"><path class="cls-10" d="M127,12.66l-2-2a6,6,0,0,0-1.33-2.19l2,2A6,6,0,0,1,127,12.66" transform="translate(-7.01 -0.46)"/></g></g></g><g class="cls-2"><g class="cls-31"><g class="cls-2"><path class="cls-7" d="M124.08,2.52l-2-2,0.41,0,2,2-0.41,0" transform="translate(-7.01 -0.46)"/><path class="cls-6" d="M124.49,2.55l-2-2a4.07,4.07,0,0,1,.66.13l2,2a4.07,4.07,0,0,0-.66-0.13" transform="translate(-7.01 -0.46)"/><path class="cls-5" d="M125.15,2.67l-2-2a5,5,0,0,1,1,.39l2,2a5,5,0,0,0-1-.39" transform="translate(-7.01 -0.46)"/><path class="cls-4" d="M126.12,3.07l-2-2a6.85,6.85,0,0,1,.89.56,7,7,0,0,1,.81.7l2,2a7,7,0,0,0-.81-0.7,6.85,6.85,0,0,0-.89-0.56" transform="translate(-7.01 -0.46)"/></g></g></g><g class="cls-2"><g class="cls-32"><g class="cls-2"><path class="cls-10" d="M120.19,22.5l-2-2a7.44,7.44,0,0,1-1.35-1.9,11.9,11.9,0,0,1-1-2.86,19.53,19.53,0,0,1-.36-4.08,19.29,19.29,0,0,1,.58-5.06,11.58,11.58,0,0,1,1.52-3.46,6.09,6.09,0,0,1,2.12-2,5.72,5.72,0,0,1,.57-0.27l2,2a5.72,5.72,0,0,0-.57.27,6.09,6.09,0,0,0-2.12,2,11.58,11.58,0,0,0-1.52,3.46,19.29,19.29,0,0,0-.58,5.06,19.53,19.53,0,0,0,.36,4.08,11.9,11.9,0,0,0,1,2.86,7.44,7.44,0,0,0,1.35,1.9" transform="translate(-7.01 -0.46)"/><path class="cls-9" d="M122.28,2.88l-2-2A5,5,0,0,1,121.14.6l2,2a5,5,0,0,0-.88.27" transform="translate(-7.01 -0.46)"/><path class="cls-8" d="M123.15,2.62l-2-2a4.64,4.64,0,0,1,.72-0.09l2,2a4.64,4.64,0,0,0-.72.09" transform="translate(-7.01 -0.46)"/><path class="cls-7" d="M123.88,2.53l-2-2h0.21l2,2h-0.21" transform="translate(-7.01 -0.46)"/></g></g></g><path class="cls-14" d="M124.08,2.52A5,5,0,0,1,127,3.63a9.21,9.21,0,0,1,2.62,3.26L127,12.66a6,6,0,0,0-1.38-2.24A2.43,2.43,0,0,0,124,9.59a2.49,2.49,0,0,0-.83.15,1.74,1.74,0,0,0-.76.58,3.75,3.75,0,0,0-.57,1.11,5.47,5.47,0,0,0-.23,1.73,5.18,5.18,0,0,0,.18,1.51,3.38,3.38,0,0,0,.52,1.05,5.13,5.13,0,0,0,.83.83c0.32,0.25.68,0.5,1.08,0.77,0.58,0.4,1.18.85,1.8,1.33a7.48,7.48,0,0,1,1.71,1.92,11.2,11.2,0,0,1,1.26,3,16.74,16.74,0,0,1,.5,4.44,22.75,22.75,0,0,1-.55,5.29A12.68,12.68,0,0,1,127.5,37a6.52,6.52,0,0,1-2.09,2.16,4.76,4.76,0,0,1-2.43.7,5.71,5.71,0,0,1-3.52-1.33,9.93,9.93,0,0,1-2.82-3.79L119.32,29A8.38,8.38,0,0,0,121,31.69a2.9,2.9,0,0,0,2,1.07,2.07,2.07,0,0,0,.89-0.2,2,2,0,0,0,.76-0.65,3.58,3.58,0,0,0,.51-1.21,7.08,7.08,0,0,0,.2-1.81,5.32,5.32,0,0,0-.24-1.71,4.47,4.47,0,0,0-.68-1.28,5.63,5.63,0,0,0-1.11-1.05c-0.43-.31-0.93-0.66-1.49-1a11.68,11.68,0,0,1-1.6-1.3,7.4,7.4,0,0,1-1.38-1.93,11.9,11.9,0,0,1-1-2.86,19.53,19.53,0,0,1-.36-4.08,19.29,19.29,0,0,1,.58-5.06,11.58,11.58,0,0,1,1.52-3.46,6.09,6.09,0,0,1,2.12-2A5,5,0,0,1,124.08,2.52Z" transform="translate(-7.01 -0.46)"/></g><g class="cls-2"><g class="cls-2"><g class="cls-33"><g class="cls-2"><path class="cls-10" d="M104.85,38.36l-2-2a7.94,7.94,0,0,1-.75-0.88,11,11,0,0,1-1.45-2.83,17.57,17.57,0,0,1-.89-3.79l2,2a17.57,17.57,0,0,0,.89,3.79,11,11,0,0,0,1.45,2.83,7.94,7.94,0,0,0,.75.88" transform="translate(-7.01 -0.46)"/></g></g></g><polygon class="cls-34" points="94.73 30.4 92.71 28.38 96.38 26.02 98.4 28.04 94.73 30.4"/><g class="cls-2"><g class="cls-35"><g class="cls-2"><path class="cls-4" d="M106.89,32.2l-2-2a2.07,2.07,0,0,0,.5.38l2,2a2.07,2.07,0,0,1-.5-0.38" transform="translate(-7.01 -0.46)"/><path class="cls-5" d="M107.39,32.58l-2-2a1.63,1.63,0,0,0,.32.13l2,2a1.63,1.63,0,0,1-.32-0.13" transform="translate(-7.01 -0.46)"/><path class="cls-6" d="M107.71,32.7l-2-2,0.26,0,2,2-0.26,0" transform="translate(-7.01 -0.46)"/><path class="cls-7" d="M108,32.75l-2-2h0.25l2,2H108" transform="translate(-7.01 -0.46)"/><path class="cls-8" d="M108.22,32.76l-2-2,0.24,0,2,2-0.24,0" transform="translate(-7.01 -0.46)"/><path class="cls-9" d="M108.46,32.73l-2-2,0.27-.08,2,2-0.27.08" transform="translate(-7.01 -0.46)"/><path class="cls-10" d="M108.73,32.65l-2-2a2.57,2.57,0,0,0,1.2-1.19,7.83,7.83,0,0,0,.76-3.86,9.38,9.38,0,0,0-.3-2.61,5,5,0,0,0-.81-1.68,3.41,3.41,0,0,0-.27-0.31l2,2a3.41,3.41,0,0,1,.27.31,5,5,0,0,1,.81,1.68,9.38,9.38,0,0,1,.3,2.61,7.83,7.83,0,0,1-.76,3.86,2.57,2.57,0,0,1-1.2,1.19" transform="translate(-7.01 -0.46)"/></g></g></g><g class="cls-2"><g class="cls-36"><g class="cls-2"><path class="cls-8" d="M107.77,16l-2-2a6.7,6.7,0,0,1,.67-0.07l2,2a6.7,6.7,0,0,0-.67.07" transform="translate(-7.01 -0.46)"/><path class="cls-7" d="M108.44,15.92l-2-2h0.18l0.49,0,2,2-0.49,0h-0.18" transform="translate(-7.01 -0.46)"/><path class="cls-6" d="M109.1,15.94l-2-2a4.35,4.35,0,0,1,.7.14l2,2a4.35,4.35,0,0,0-.7-0.14" transform="translate(-7.01 -0.46)"/><path class="cls-5" d="M109.81,16.08l-2-2a4.49,4.49,0,0,1,.88.35l2,2a4.49,4.49,0,0,0-.88-0.35" transform="translate(-7.01 -0.46)"/><path class="cls-4" d="M110.68,16.43l-2-2L109,14.6a4.86,4.86,0,0,1,.88.7l2,2a4.86,4.86,0,0,0-.88-0.7l-0.33-.19" transform="translate(-7.01 -0.46)"/></g></g></g><g class="cls-2"><g class="cls-37"><g class="cls-2"><path class="cls-10" d="M106.91,16.27l-2-2,0.22-.1,2,2-0.22.1" transform="translate(-7.01 -0.46)"/><path class="cls-9" d="M107.14,16.16l-2-2a3,3,0,0,1,.52-0.15l2,2a3,3,0,0,0-.52.15" transform="translate(-7.01 -0.46)"/><path class="cls-8" d="M107.66,16l-2-2,0.11,0,2,2-0.11,0" transform="translate(-7.01 -0.46)"/></g></g></g><polygon class="cls-13" points="96.49 2.97 94.47 0.95 104.88 0.95 106.9 2.97 96.49 2.97"/><polygon class="cls-12" points="96.05 23.28 94.03 21.26 94.47 0.95 96.49 2.97 96.05 23.28"/><path class="cls-14" d="M113.91,3.43v7.21h-6.84l-0.15,5.62a2.89,2.89,0,0,1,.85-0.28,6,6,0,0,1,.85-0.07,4.44,4.44,0,0,1,2.4.7A5.86,5.86,0,0,1,113,18.75a12.61,12.61,0,0,1,1.31,3.53,22.6,22.6,0,0,1,.47,4.91,25.3,25.3,0,0,1-.56,5.65,14,14,0,0,1-1.48,3.93,7,7,0,0,1-2.11,2.34,4.36,4.36,0,0,1-2.42.77,4.15,4.15,0,0,1-2.19-.63,6.63,6.63,0,0,1-1.9-1.78,11,11,0,0,1-1.45-2.83,17.57,17.57,0,0,1-.89-3.79l3.67-2.36a8,8,0,0,0,1,3.07,2.08,2.08,0,0,0,1.74,1.2,2.12,2.12,0,0,0,1.78-1.3,7.83,7.83,0,0,0,.76-3.86,9.38,9.38,0,0,0-.3-2.61,5,5,0,0,0-.81-1.68,2.62,2.62,0,0,0-1.11-.87,3.22,3.22,0,0,0-1.24-.25,6.23,6.23,0,0,0-2.08.42,8,8,0,0,0-2.08,1.13L103.5,3.43h10.41Z" transform="translate(-7.01 -0.46)"/></g><g class="cls-2"><g class="cls-2"><g class="cls-38"><g class="cls-2"><path class="cls-4" d="M88.48,31.13l-2-2,0.11,0.1a3.27,3.27,0,0,0,.72.52l2,2a3.27,3.27,0,0,1-.72-0.52l-0.11-.1" transform="translate(-7.01 -0.46)"/><path class="cls-5" d="M89.31,31.76l-2-2a2.68,2.68,0,0,0,.52.21l2,2a2.68,2.68,0,0,1-.52-0.21" transform="translate(-7.01 -0.46)"/><path class="cls-6" d="M89.84,32l-2-2a2.63,2.63,0,0,0,.42.08l2,2A2.63,2.63,0,0,1,89.84,32" transform="translate(-7.01 -0.46)"/><path class="cls-7" d="M90.26,32l-2-2,0.3,0h0.13l2,2H90.56l-0.3,0" transform="translate(-7.01 -0.46)"/><path class="cls-8" d="M90.69,32.06l-2-2A2.68,2.68,0,0,0,89.09,30l2,2a2.68,2.68,0,0,1-.42.05" transform="translate(-7.01 -0.46)"/><path class="cls-9" d="M91.11,32l-2-2a2.63,2.63,0,0,0,.46-0.14l2,2a2.63,2.63,0,0,1-.46.14" transform="translate(-7.01 -0.46)"/><path class="cls-10" d="M91.57,31.87l-2-2a3.13,3.13,0,0,0,1-.63A6.91,6.91,0,0,0,92,26.94a14.38,14.38,0,0,0,1-3.49l2,2a14.38,14.38,0,0,1-1,3.49,6.91,6.91,0,0,1-1.53,2.28,3.13,3.13,0,0,1-1,.63" transform="translate(-7.01 -0.46)"/></g></g></g><g class="cls-2"><g class="cls-39"><g class="cls-2"><path class="cls-10" d="M95.08,25.47l-2-2A25.16,25.16,0,0,0,93.42,19a24.23,24.23,0,0,0-.35-4.32,14.88,14.88,0,0,0-1-3.44,6.91,6.91,0,0,0-1.39-2.12l2,2a6.91,6.91,0,0,1,1.39,2.12,14.88,14.88,0,0,1,1,3.44A24.23,24.23,0,0,1,95.44,21a25.16,25.16,0,0,1-.37,4.43" transform="translate(-7.01 -0.46)"/></g></g></g><path class="cls-14" d="M99.15,13.34a38.61,38.61,0,0,1,.68,7.7,39.21,39.21,0,0,1-.7,7.7,23.6,23.6,0,0,1-1.94,6,11.18,11.18,0,0,1-2.94,3.84,5.83,5.83,0,0,1-3.7,1.35,5.77,5.77,0,0,1-3.68-1.35,11.36,11.36,0,0,1-2.93-3.84,23.92,23.92,0,0,1-1.92-6,39.15,39.15,0,0,1-.69-7.7,38.6,38.6,0,0,1,.71-7.7A22.77,22.77,0,0,1,84,7.49a10.89,10.89,0,0,1,2.94-3.71,5.87,5.87,0,0,1,7.38,0,10.64,10.64,0,0,1,2.93,3.71A22.37,22.37,0,0,1,99.15,13.34ZM95.08,25.47A25.16,25.16,0,0,0,95.44,21a24.23,24.23,0,0,0-.35-4.32,14.88,14.88,0,0,0-1-3.44A6.73,6.73,0,0,0,92.57,11a2.88,2.88,0,0,0-2-.83,2.85,2.85,0,0,0-2,.83,7.16,7.16,0,0,0-1.53,2.26,14.45,14.45,0,0,0-1,3.44A25.14,25.14,0,0,0,85.73,21a26,26,0,0,0,.35,4.43,15.69,15.69,0,0,0,1,3.49,6.87,6.87,0,0,0,1.52,2.28,2.76,2.76,0,0,0,3.94,0A6.91,6.91,0,0,0,94.06,29a14.38,14.38,0,0,0,1-3.49" transform="translate(-7.01 -0.46)"/><g class="cls-2"><g class="cls-40"><g class="cls-2"><path class="cls-10" d="M86.19,37.92l-2-2a12.24,12.24,0,0,1-2.24-3.22,23.92,23.92,0,0,1-1.92-6,39.15,39.15,0,0,1-.69-7.7,38.6,38.6,0,0,1,.71-7.7A22.77,22.77,0,0,1,82,5.47,10.89,10.89,0,0,1,84.9,1.76,6.41,6.41,0,0,1,86.42.88l2,2a6.41,6.41,0,0,0-1.52.89A10.89,10.89,0,0,0,84,7.49,22.77,22.77,0,0,0,82,13.34a38.6,38.6,0,0,0-.71,7.7,39.15,39.15,0,0,0,.69,7.7,23.92,23.92,0,0,0,1.92,6,12.24,12.24,0,0,0,2.24,3.22" transform="translate(-7.01 -0.46)"/><path class="cls-9" d="M88.44,2.9l-2-2a5.68,5.68,0,0,1,1-.3l2,2a5.68,5.68,0,0,0-1,.3" transform="translate(-7.01 -0.46)"/><path class="cls-8" d="M89.44,2.59l-2-2a5.74,5.74,0,0,1,.9-0.11l2,2a5.74,5.74,0,0,0-.9.11" transform="translate(-7.01 -0.46)"/><path class="cls-7" d="M90.33,2.48l-2-2h0.27a6,6,0,0,1,.64,0l2,2a6,6,0,0,0-.64,0H90.33" transform="translate(-7.01 -0.46)"/><path class="cls-6" d="M91.24,2.51l-2-2a5.69,5.69,0,0,1,.92.18l2,2a5.69,5.69,0,0,0-.92-0.18" transform="translate(-7.01 -0.46)"/><path class="cls-5" d="M92.16,2.69l-2-2a5.86,5.86,0,0,1,1.15.46l2,2a5.86,5.86,0,0,0-1.15-.46" transform="translate(-7.01 -0.46)"/><path class="cls-4" d="M93.3,3.15l-2-2a6.76,6.76,0,0,1,1,.64,8.27,8.27,0,0,1,.83.73l2,2a8.27,8.27,0,0,0-.83-0.73,6.76,6.76,0,0,0-1-.64" transform="translate(-7.01 -0.46)"/></g></g></g></g><g class="cls-2"><g class="cls-2"><g class="cls-41"><g class="cls-2"><path class="cls-10" d="M157.41,37.88l-2-2a10.79,10.79,0,0,1-2.12-3.16l2,2a10.79,10.79,0,0,0,2.12,3.16" transform="translate(-7.01 -0.46)"/></g></g></g><g class="cls-2"><g class="cls-42"><g class="cls-2"><path class="cls-4" d="M159.74,31.8l-2-2a3.84,3.84,0,0,0,.92.7l2,2a3.84,3.84,0,0,1-.92-0.7" transform="translate(-7.01 -0.46)"/><path class="cls-5" d="M160.65,32.5l-2-2a2.4,2.4,0,0,0,.47.19l2,2a2.4,2.4,0,0,1-.47-0.19" transform="translate(-7.01 -0.46)"/><path class="cls-6" d="M161.12,32.69l-2-2,0.33,0.06,2,2-0.33-.06" transform="translate(-7.01 -0.46)"/><path class="cls-7" d="M161.45,32.75l-2-2h0.3l2,2h-0.3" transform="translate(-7.01 -0.46)"/><path class="cls-8" d="M161.75,32.76l-2-2,0.33,0,2,2-0.33,0" transform="translate(-7.01 -0.46)"/><path class="cls-9" d="M162.08,32.72l-2-2a2.06,2.06,0,0,0,.36-0.11l2,2a2.06,2.06,0,0,1-.36.11" transform="translate(-7.01 -0.46)"/><path class="cls-10" d="M162.44,32.61l-2-2,0.11,0a2,2,0,0,0,.76-0.65,3.58,3.58,0,0,0,.51-1.21,7.54,7.54,0,0,0,.19-1.81,5.34,5.34,0,0,0-.23-1.71,4.47,4.47,0,0,0-.68-1.28,5,5,0,0,0-.4-0.45l2,2a5,5,0,0,1,.4.45,4.47,4.47,0,0,1,.68,1.28A5.34,5.34,0,0,1,164,28.9a7.54,7.54,0,0,1-.19,1.81,3.58,3.58,0,0,1-.51,1.21,2,2,0,0,1-.76.65l-0.11,0" transform="translate(-7.01 -0.46)"/></g></g></g><polygon class="cls-12" points="148.28 34.26 146.26 32.24 148.96 26.52 150.97 28.54 148.28 34.26"/><g class="cls-2"><g class="cls-43"><g class="cls-2"><path class="cls-4" d="M161.37,16.15l-2-2a5.38,5.38,0,0,0,.44.4c0.32,0.25.68,0.5,1.08,0.77,0.58,0.4,1.18.85,1.8,1.33a6.44,6.44,0,0,1,.58.52l2,2a6.44,6.44,0,0,0-.58-0.52c-0.62-.49-1.22-0.93-1.8-1.33-0.4-.27-0.75-0.52-1.08-0.77a5.38,5.38,0,0,1-.44-0.4" transform="translate(-7.01 -0.46)"/></g></g></g><g class="cls-2"><g class="cls-44"><g class="cls-2"><path class="cls-10" d="M165.68,12.66l-2-2a6.1,6.1,0,0,0-1.35-2.22l2,2a6.1,6.1,0,0,1,1.35,2.22" transform="translate(-7.01 -0.46)"/></g></g></g><g class="cls-2"><g class="cls-45"><g class="cls-2"><path class="cls-7" d="M162.74,2.52l-2-2,0.41,0,2,2-0.41,0" transform="translate(-7.01 -0.46)"/><path class="cls-6" d="M163.15,2.55l-2-2a4.1,4.1,0,0,1,.66.13l2,2a4.1,4.1,0,0,0-.66-0.13" transform="translate(-7.01 -0.46)"/><path class="cls-5" d="M163.82,2.67l-2-2a5,5,0,0,1,1,.39l2,2a5,5,0,0,0-1-.39" transform="translate(-7.01 -0.46)"/><path class="cls-4" d="M164.79,3.07l-2-2a6.84,6.84,0,0,1,.89.56,7,7,0,0,1,.79.69l2,2a7,7,0,0,0-.79-0.69,6.84,6.84,0,0,0-.89-0.56" transform="translate(-7.01 -0.46)"/></g></g></g><g class="cls-2"><g class="cls-46"><g class="cls-2"><path class="cls-10" d="M158.83,22.47l-2-2a7.52,7.52,0,0,1-1.32-1.87,11.91,11.91,0,0,1-1-2.86,19.53,19.53,0,0,1-.36-4.08,19.29,19.29,0,0,1,.58-5.06,11.14,11.14,0,0,1,1.52-3.46,6.07,6.07,0,0,1,2.11-2,5.72,5.72,0,0,1,.57-0.27l2,2a5.72,5.72,0,0,0-.57.27,6.07,6.07,0,0,0-2.11,2,11.14,11.14,0,0,0-1.52,3.46,19.29,19.29,0,0,0-.58,5.06,19.53,19.53,0,0,0,.36,4.08,11.91,11.91,0,0,0,1,2.86,7.52,7.52,0,0,0,1.32,1.87" transform="translate(-7.01 -0.46)"/><path class="cls-9" d="M160.94,2.88l-2-2A5,5,0,0,1,159.79.6l2,2a5,5,0,0,0-.88.27" transform="translate(-7.01 -0.46)"/><path class="cls-8" d="M161.81,2.62l-2-2a4.64,4.64,0,0,1,.72-0.09l2,2a4.64,4.64,0,0,0-.72.09" transform="translate(-7.01 -0.46)"/><path class="cls-7" d="M162.54,2.53l-2-2h0.21l2,2h-0.21" transform="translate(-7.01 -0.46)"/></g></g></g><path class="cls-14" d="M162.74,2.52a5,5,0,0,1,2.94,1.11,9.41,9.41,0,0,1,2.62,3.26l-2.62,5.77a6.08,6.08,0,0,0-1.37-2.24,2.44,2.44,0,0,0-1.64-.83,2.49,2.49,0,0,0-.83.15,1.74,1.74,0,0,0-.76.58,3.75,3.75,0,0,0-.56,1.11,5.45,5.45,0,0,0-.24,1.73,5.51,5.51,0,0,0,.18,1.51,3.4,3.4,0,0,0,.53,1.05,5.13,5.13,0,0,0,.83.83c0.32,0.25.68,0.5,1.08,0.77,0.58,0.4,1.18.85,1.8,1.33a7.62,7.62,0,0,1,1.7,1.92,11.5,11.5,0,0,1,1.27,3,16.74,16.74,0,0,1,.5,4.44,22.75,22.75,0,0,1-.55,5.29A12.43,12.43,0,0,1,166.15,37a6.43,6.43,0,0,1-2.09,2.16,4.76,4.76,0,0,1-2.42.7,5.69,5.69,0,0,1-3.52-1.33,10,10,0,0,1-2.83-3.79L158,29a8.07,8.07,0,0,0,1.64,2.69,2.86,2.86,0,0,0,2,1.07,2.07,2.07,0,0,0,.89-0.2,2,2,0,0,0,.76-0.65,3.58,3.58,0,0,0,.51-1.21A7.54,7.54,0,0,0,164,28.9a5.34,5.34,0,0,0-.23-1.71,4.47,4.47,0,0,0-.68-1.28A5.63,5.63,0,0,0,162,24.87c-0.44-.31-0.93-0.66-1.5-1a12.19,12.19,0,0,1-1.59-1.3,7.42,7.42,0,0,1-1.39-1.93,11.91,11.91,0,0,1-1-2.86,19.53,19.53,0,0,1-.36-4.08,19.29,19.29,0,0,1,.58-5.06,11.14,11.14,0,0,1,1.52-3.46,6.07,6.07,0,0,1,2.11-2A5,5,0,0,1,162.74,2.52Z" transform="translate(-7.01 -0.46)"/></g><g class="cls-2"><polygon class="cls-12" points="143.05 38.47 141.03 36.45 137.33 23.92 139.35 25.93 143.05 38.47"/><polygon class="cls-12" points="130.86 38.47 128.84 36.45 134.82 17.7 136.84 19.72 130.86 38.47"/><polygon class="cls-12" points="139.48 14 137.46 11.98 140.59 0.95 142.61 2.97 139.48 14"/><polygon class="cls-13" points="142.61 2.97 140.59 0.95 145.36 0.95 147.38 2.97 142.61 2.97"/><polygon class="cls-14" points="147.38 2.97 141.99 19.72 148.11 38.47 143.05 38.47 139.35 25.93 135.75 38.47 130.86 38.47 136.84 19.72 131.39 2.97 136.33 2.97 139.48 14 142.61 2.97 147.38 2.97"/><polygon class="cls-12" points="136.84 19.72 134.82 17.7 129.37 0.95 131.39 2.97 136.84 19.72"/><polygon class="cls-13" points="131.39 2.97 129.37 0.95 134.31 0.95 136.33 2.97 131.39 2.97"/></g><g class="cls-2"><polygon class="cls-14" points="129.35 2.97 129.3 38.47 125.17 38.47 125.22 2.97 129.35 2.97"/><polygon class="cls-12" points="125.17 38.47 123.16 36.45 123.2 0.95 125.22 2.97 125.17 38.47"/><polygon class="cls-13" points="125.22 2.97 123.2 0.95 127.33 0.95 129.35 2.97 125.22 2.97"/></g><g class="cls-2"><polygon class="cls-12" points="181.71 38.47 179.7 36.45 175.99 23.92 178 25.93 181.71 38.47"/><polygon class="cls-12" points="169.53 38.47 167.51 36.45 173.48 17.7 175.49 19.72 169.53 38.47"/><polygon class="cls-12" points="178.15 14 176.13 11.98 179.25 0.95 181.27 2.97 178.15 14"/><polygon class="cls-13" points="181.27 2.97 179.25 0.95 184.03 0.95 186.05 2.97 181.27 2.97"/><polygon class="cls-14" points="186.05 2.97 180.66 19.72 186.77 38.47 181.71 38.47 178 25.93 174.42 38.47 169.53 38.47 175.49 19.72 170.05 2.97 174.99 2.97 178.15 14 181.27 2.97 186.05 2.97"/><polygon class="cls-12" points="175.49 19.72 173.48 17.7 168.03 0.95 170.05 2.97 175.49 19.72"/><polygon class="cls-13" points="170.05 2.97 168.03 0.95 172.98 0.95 174.99 2.97 170.05 2.97"/></g><g class="cls-2"><polygon class="cls-14" points="168.01 2.97 167.97 38.47 163.84 38.47 163.88 2.97 168.01 2.97"/><polygon class="cls-12" points="163.84 38.47 161.82 36.45 161.87 0.95 163.88 2.97 163.84 38.47"/><polygon class="cls-13" points="163.88 2.97 161.87 0.95 166 0.95 168.01 2.97 163.88 2.97"/></g></svg>