<svg id="Layer_1" data-name="Layer 1" xmlns="http://www.w3.org/2000/svg" xmlns:xlink="http://www.w3.org/1999/xlink" viewBox="0 0 186.5 19.64"><defs><style>.cls-1{fill:none;}.cls-2{isolation:isolate;}.cls-3{clip-path:url(#clip-path);}.cls-4{fill:#28517d;}.cls-5{clip-path:url(#clip-path-2);}.cls-6{fill:#31649a;}.cls-7{fill:#2f6195;}.cls-8{fill:#2e5e91;}.cls-9{fill:#2c5a8c;}.cls-10{fill:#2b5787;}.cls-11{fill:#295482;}.cls-12{clip-path:url(#clip-path-3);}.cls-13{fill:#2b598a;}.cls-14{fill:#264e79;}.cls-15{fill:#4287d1;}.cls-16{clip-path:url(#clip-path-4);}.cls-17{clip-path:url(#clip-path-5);}.cls-18{clip-path:url(#clip-path-6);}.cls-19{clip-path:url(#clip-path-7);}.cls-20{clip-path:url(#clip-path-8);}.cls-21{clip-path:url(#clip-path-9);}.cls-22{clip-path:url(#clip-path-10);}.cls-23{clip-path:url(#clip-path-11);}.cls-24{clip-path:url(#clip-path-12);}.cls-25{clip-path:url(#clip-path-13);}.cls-26{clip-path:url(#clip-path-14);}.cls-27{clip-path:url(#clip-path-15);}.cls-28{clip-path:url(#clip-path-16);}.cls-29{clip-path:url(#clip-path-17);}.cls-30{clip-path:url(#clip-path-18);}.cls-31{clip-path:url(#clip-path-19);}.cls-32{clip-path:url(#clip-path-20);}.cls-33{clip-path:url(#clip-path-21);}.cls-34{clip-path:url(#clip-path-22);}.cls-35{clip-path:url(#clip-path-23);}.cls-36{fill:#295380;}.cls-37{clip-path:url(#clip-path-24);}.cls-38{clip-path:url(#clip-path-25);}.cls-39{clip-path:url(#clip-path-26);}.cls-40{clip-path:url(#clip-path-27);}.cls-41{clip-path:url(#clip-path-28);}.cls-42{clip-path:url(#clip-path-29);}.cls-43{clip-path:url(#clip-path-30);}.cls-44{clip-path:url(#clip-path-31);}.cls-45{clip-path:url(#clip-path-32);}.cls-46{clip-path:url(#clip-path-33);}.cls-47{clip-path:url(#clip-path-34);}.cls-48{clip-path:url(#clip-path-35);}.cls-49{clip-path:url(#clip-path-36);}.cls-50{clip-path:url(#clip-path-37);}.cls-51{clip-path:url(#clip-path-38);}.cls-52{clip-path:url(#clip-path-39);}.cls-53{clip-path:url(#clip-path-40);}</style><clipPath id="clip-path" transform="translate(-7.16 -9.46)"><path class="cls-1" d="M48.22,23.23l-1.74-1.74a5.2,5.2,0,0,0,.17-1.31l1.74,1.74A5.2,5.2,0,0,1,48.22,23.23Z"/></clipPath><clipPath id="clip-path-2" transform="translate(-7.16 -9.46)"><path class="cls-1" d="M43,24.61l-1.74-1.74a2.62,2.62,0,0,0,.75.52,3.92,3.92,0,0,0,3,0,2.7,2.7,0,0,0,1-.78,3.24,3.24,0,0,0,.55-1.12l1.74,1.74a3.24,3.24,0,0,1-.55,1.12,2.7,2.7,0,0,1-1,.78,3.92,3.92,0,0,1-3,0A2.62,2.62,0,0,1,43,24.61Z"/></clipPath><clipPath id="clip-path-3" transform="translate(-7.16 -9.46)"><path class="cls-1" d="M39.81,27.14l-1.74-1.74a6.14,6.14,0,0,1-1.37-2.1,7.55,7.55,0,0,1-.5-2.8l1.74,1.74a7.55,7.55,0,0,0,.5,2.8A6.14,6.14,0,0,0,39.81,27.14Z"/></clipPath><clipPath id="clip-path-4" transform="translate(-7.16 -9.46)"><path class="cls-1" d="M15.44,21.06l1.74,1.74a1.9,1.9,0,0,1,.2.23l-1.74-1.74A1.9,1.9,0,0,0,15.44,21.06Z"/></clipPath><clipPath id="clip-path-5" transform="translate(-7.16 -9.46)"><path class="cls-1" d="M11.89,24.23l-1.74-1.74a5.32,5.32,0,0,0,1.35,1,4.44,4.44,0,0,0,2,.51,4.16,4.16,0,0,0,.89-0.1,2.19,2.19,0,0,0,.76-0.31A1.59,1.59,0,0,0,15.68,23a1.85,1.85,0,0,0,.19-0.86,1.41,1.41,0,0,0-.23-0.82L17.38,23a1.41,1.41,0,0,1,.23.82,1.85,1.85,0,0,1-.19.86,1.59,1.59,0,0,1-.51.58,2.19,2.19,0,0,1-.76.31,4.16,4.16,0,0,1-.89.1,4.44,4.44,0,0,1-2-.51A5.32,5.32,0,0,1,11.89,24.23Z"/></clipPath><clipPath id="clip-path-6" transform="translate(-7.16 -9.46)"><path class="cls-1" d="M9,26.72L7.24,25l-0.09-.09L8.9,26.64Z"/></clipPath><clipPath id="clip-path-7" transform="translate(-7.16 -9.46)"><path class="cls-1" d="M17.25,14L19,15.77a3.45,3.45,0,0,1,.28.32l-1.74-1.74A3.45,3.45,0,0,0,17.25,14Z"/></clipPath><clipPath id="clip-path-8" transform="translate(-7.16 -9.46)"><path class="cls-1" d="M18.76,18.57l1.74,1.74A4.84,4.84,0,0,0,20,19.87a6.74,6.74,0,0,0-1.7-.93c-0.62-.22-1.22-0.44-1.8-0.63-0.4-.13-0.76-0.25-1.08-0.38l-1.74-1.74c0.31,0.13.67,0.24,1.08,0.38,0.58,0.19,1.18.4,1.8,0.63a6.74,6.74,0,0,1,1.7.93A4.85,4.85,0,0,1,18.76,18.57Z"/></clipPath><clipPath id="clip-path-9" transform="translate(-7.16 -9.46)"><path class="cls-1" d="M14.26,17.28l-1.74-1.74a1.81,1.81,0,0,0,.33.26,4.43,4.43,0,0,0,.83.4l1.74,1.74a4.43,4.43,0,0,1-.83-0.4A1.8,1.8,0,0,1,14.26,17.28Z"/></clipPath><clipPath id="clip-path-10" transform="translate(-7.16 -9.46)"><path class="cls-1" d="M11,19.76L9.23,18a4.15,4.15,0,0,1-.85-1.24l1.74,1.74A4.15,4.15,0,0,0,11,19.76Z"/></clipPath><clipPath id="clip-path-11" transform="translate(-7.16 -9.46)"><path class="cls-1" d="M16.33,11.24L14.59,9.49a8.84,8.84,0,0,1,2.94.53,7.64,7.64,0,0,1,2.62,1.56l1.74,1.74a7.64,7.64,0,0,0-2.62-1.56A8.84,8.84,0,0,0,16.33,11.24Z"/></clipPath><clipPath id="clip-path-12" transform="translate(-7.16 -9.46)"><path class="cls-1" d="M10.13,18.51L8.38,16.77a4.55,4.55,0,0,1-.37-2A4.75,4.75,0,0,1,8.6,12.4a4.86,4.86,0,0,1,1.51-1.65,6.61,6.61,0,0,1,2.11-1,9.65,9.65,0,0,1,2.37-.3l1.74,1.74a9.65,9.65,0,0,0-2.37.3,6.61,6.61,0,0,0-2.11,1,4.86,4.86,0,0,0-1.51,1.65,4.75,4.75,0,0,0-.58,2.42A4.55,4.55,0,0,0,10.13,18.51Z"/></clipPath><clipPath id="clip-path-13" transform="translate(-7.16 -9.46)"><path class="cls-1" d="M61.75,25.1L60,23.35a8.69,8.69,0,0,0,2.12-.25,4.93,4.93,0,0,0,1.8-.83,4.06,4.06,0,0,0,1.25-1.53l1.74,1.74A4.06,4.06,0,0,1,65.67,24a4.93,4.93,0,0,1-1.8.83A8.69,8.69,0,0,1,61.75,25.1Z"/></clipPath><clipPath id="clip-path-14" transform="translate(-7.16 -9.46)"><path class="cls-1" d="M64.39,14.85l1.74,1.74a4.27,4.27,0,0,1,.8,1.12,5.5,5.5,0,0,1,.46,2.39,5.48,5.48,0,0,1-.47,2.37l-1.74-1.74a5.48,5.48,0,0,0,.47-2.37A5.5,5.5,0,0,0,65.18,16,4.27,4.27,0,0,0,64.39,14.85Z"/></clipPath><clipPath id="clip-path-15" transform="translate(-7.16 -9.46)"><path class="cls-1" d="M67.72,12.44l1.74,1.74a6.63,6.63,0,0,0-.84-0.71,8.92,8.92,0,0,0-3.12-1.39A15.22,15.22,0,0,0,62,11.67L60.21,9.92a15.22,15.22,0,0,1,3.55.42,8.92,8.92,0,0,1,3.12,1.39A6.63,6.63,0,0,1,67.72,12.44Z"/></clipPath><clipPath id="clip-path-16" transform="translate(-7.16 -9.46)"><path class="cls-1" d="M93.93,23.87l-1.74-1.74a4.65,4.65,0,0,0,1-1.66l1.74,1.74A4.65,4.65,0,0,1,93.93,23.87Z"/></clipPath><clipPath id="clip-path-17" transform="translate(-7.16 -9.46)"><path class="cls-1" d="M88.46,25l-1.74-1.74a5.1,5.1,0,0,0,3.94,0,4.68,4.68,0,0,0,1.53-1.1l1.74,1.74A4.68,4.68,0,0,1,92.4,25,5.1,5.1,0,0,1,88.46,25Z"/></clipPath><clipPath id="clip-path-18" transform="translate(-7.16 -9.46)"><path class="cls-1" d="M87.09,24l-1.74-1.74a4.7,4.7,0,0,0,1.37.94L88.46,25A4.7,4.7,0,0,1,87.09,24Z"/></clipPath><clipPath id="clip-path-19" transform="translate(-7.16 -9.46)"><path class="cls-1" d="M92.09,14.51l1.74,1.74L94,16.38a4.87,4.87,0,0,1,1,1.65,5.73,5.73,0,0,1,.36,2.06,6,6,0,0,1-.36,2.12L93.2,20.47a6,6,0,0,0,.36-2.12,5.73,5.73,0,0,0-.36-2.06,4.87,4.87,0,0,0-1-1.65Z"/></clipPath><clipPath id="clip-path-20" transform="translate(-7.16 -9.46)"><path class="cls-1" d="M83.72,26.53L82,24.79A8.35,8.35,0,0,1,80.15,22a9.37,9.37,0,0,1-.7-3.68,9.26,9.26,0,0,1,.71-3.68,8,8,0,0,1,1.93-2.8A8.72,8.72,0,0,1,85,10.09a11.11,11.11,0,0,1,7.38,0,8.52,8.52,0,0,1,2.93,1.77l0.22,0.21,1.74,1.74-0.22-.21a8.52,8.52,0,0,0-2.93-1.77,11.11,11.11,0,0,0-7.38,0,8.72,8.72,0,0,0-2.93,1.77,8,8,0,0,0-1.93,2.8,9.26,9.26,0,0,0-.71,3.68,9.37,9.37,0,0,0,.7,3.68A8.35,8.35,0,0,0,83.72,26.53Z"/></clipPath><clipPath id="clip-path-21" transform="translate(-7.16 -9.46)"><path class="cls-1" d="M111.44,17.57l1.74,1.74a4.49,4.49,0,0,0-.36-0.32l-1.74-1.74A4.49,4.49,0,0,1,111.44,17.57Z"/></clipPath><clipPath id="clip-path-22" transform="translate(-7.16 -9.46)"><path class="cls-1" d="M106,24.87l-1.74-1.74a3.12,3.12,0,0,0,.28.25,2.89,2.89,0,0,0,3.52,0,2.28,2.28,0,0,0,.76-1.85,2.31,2.31,0,0,0-.3-1.24,2.39,2.39,0,0,0-.36-0.46l1.74,1.74a2.39,2.39,0,0,1,.36.46,2.31,2.31,0,0,1,.3,1.24,2.28,2.28,0,0,1-.76,1.85,2.89,2.89,0,0,1-3.52,0A3.12,3.12,0,0,1,106,24.87Z"/></clipPath><clipPath id="clip-path-23" transform="translate(-7.16 -9.46)"><path class="cls-1" d="M103,27.2l-1.74-1.74a5.62,5.62,0,0,1-.52-0.6,5.49,5.49,0,0,1-.9-1.81l1.74,1.74a5.49,5.49,0,0,0,.9,1.81A5.61,5.61,0,0,0,103,27.2Z"/></clipPath><clipPath id="clip-path-24" transform="translate(-7.16 -9.46)"><path class="cls-1" d="M106.77,17.81L105,16.07a5.68,5.68,0,0,1,.85-0.13c0.31,0,.59,0,0.85,0a8.28,8.28,0,0,1,2.4.33,5.39,5.39,0,0,1,2,1L112.83,19a5.39,5.39,0,0,0-2-1,8.28,8.28,0,0,0-2.4-.33c-0.25,0-.53,0-0.85,0A5.68,5.68,0,0,0,106.77,17.81Z"/></clipPath><clipPath id="clip-path-25" transform="translate(-7.16 -9.46)"><path class="cls-1" d="M123,21l1.74,1.74A2,2,0,0,1,125,23a1.36,1.36,0,0,1,.24.82,1.85,1.85,0,0,1-.19.86L123.28,23a1.85,1.85,0,0,0,.19-0.86,1.36,1.36,0,0,0-.24-0.82A2,2,0,0,0,123,21Z"/></clipPath><clipPath id="clip-path-26" transform="translate(-7.16 -9.46)"><path class="cls-1" d="M119.49,24.23l-1.74-1.74a5.39,5.39,0,0,0,1.34,1,4.5,4.5,0,0,0,2,.51,4.14,4.14,0,0,0,.88-0.1,2.19,2.19,0,0,0,.76-0.31,1.7,1.7,0,0,0,.52-0.58L125,24.72a1.7,1.7,0,0,1-.52.58,2.19,2.19,0,0,1-.76.31,4.14,4.14,0,0,1-.88.1,4.5,4.5,0,0,1-2-.51A5.38,5.38,0,0,1,119.49,24.23Z"/></clipPath><clipPath id="clip-path-27" transform="translate(-7.16 -9.46)"><path class="cls-1" d="M116.61,26.75L114.87,25l-0.11-.11,1.74,1.74Z"/></clipPath><clipPath id="clip-path-28" transform="translate(-7.16 -9.46)"><path class="cls-1" d="M124.85,14l1.74,1.74a3.45,3.45,0,0,1,.28.32l-1.74-1.74A3.45,3.45,0,0,0,124.85,14Z"/></clipPath><clipPath id="clip-path-29" transform="translate(-7.16 -9.46)"><path class="cls-1" d="M126.35,18.56l1.74,1.74a4.8,4.8,0,0,0-.5-0.44,6.74,6.74,0,0,0-1.7-.93c-0.63-.22-1.22-0.44-1.8-0.63-0.4-.13-0.76-0.25-1.08-0.38l-1.74-1.74c0.31,0.13.67,0.24,1.08,0.38,0.58,0.19,1.17.4,1.8,0.63a6.74,6.74,0,0,1,1.7.93A4.8,4.8,0,0,1,126.35,18.56Z"/></clipPath><clipPath id="clip-path-30" transform="translate(-7.16 -9.46)"><path class="cls-1" d="M122.19,17.54l-1.74-1.74a4.17,4.17,0,0,0,.83.4L123,17.94A4.17,4.17,0,0,1,122.19,17.54Z"/></clipPath><clipPath id="clip-path-31" transform="translate(-7.16 -9.46)"><path class="cls-1" d="M121.85,17.28l-1.74-1.74a1.86,1.86,0,0,0,.34.26l1.74,1.74A1.86,1.86,0,0,1,121.85,17.28Z"/></clipPath><clipPath id="clip-path-32" transform="translate(-7.16 -9.46)"><path class="cls-1" d="M118.58,19.76L116.83,18a4.15,4.15,0,0,1-.85-1.24l1.74,1.74A4.15,4.15,0,0,0,118.58,19.76Z"/></clipPath><clipPath id="clip-path-33" transform="translate(-7.16 -9.46)"><path class="cls-1" d="M123.94,11.24l-1.74-1.74a8.88,8.88,0,0,1,2.94.53,7.64,7.64,0,0,1,2.62,1.56l1.74,1.74a7.64,7.64,0,0,0-2.62-1.56A8.88,8.88,0,0,0,123.94,11.24Z"/></clipPath><clipPath id="clip-path-34" transform="translate(-7.16 -9.46)"><path class="cls-1" d="M117.73,18.51L116,16.77a4.55,4.55,0,0,1-.38-2,4.84,4.84,0,0,1,.58-2.42,5,5,0,0,1,1.51-1.65,6.75,6.75,0,0,1,2.11-1,9.65,9.65,0,0,1,2.37-.3l1.74,1.74a9.65,9.65,0,0,0-2.37.3,6.75,6.75,0,0,0-2.11,1,5,5,0,0,0-1.51,1.65,4.84,4.84,0,0,0-.58,2.42A4.55,4.55,0,0,0,117.73,18.51Z"/></clipPath><clipPath id="clip-path-35" transform="translate(-7.16 -9.46)"><path class="cls-1" d="M158.15,24.23l-1.74-1.74a5.32,5.32,0,0,0,1.35,1,4.44,4.44,0,0,0,2,.51,4.16,4.16,0,0,0,.89-0.1,2.19,2.19,0,0,0,.76-0.31,1.59,1.59,0,0,0,.51-0.58,1.86,1.86,0,0,0,.2-0.86,1.36,1.36,0,0,0-.24-0.82,2,2,0,0,0-.21-0.24l1.74,1.74a2,2,0,0,1,.21.24,1.36,1.36,0,0,1,.24.82,1.86,1.86,0,0,1-.2.86,1.59,1.59,0,0,1-.51.58,2.19,2.19,0,0,1-.76.31,4.16,4.16,0,0,1-.89.1,4.44,4.44,0,0,1-2-.51A5.32,5.32,0,0,1,158.15,24.23Z"/></clipPath><clipPath id="clip-path-36" transform="translate(-7.16 -9.46)"><path class="cls-1" d="M155.28,26.75L153.54,25l-0.11-.11,1.74,1.74Z"/></clipPath><clipPath id="clip-path-37" transform="translate(-7.16 -9.46)"><path class="cls-1" d="M163.51,14l1.74,1.74a3.45,3.45,0,0,1,.28.32l-1.74-1.74A3.45,3.45,0,0,0,163.51,14Z"/></clipPath><clipPath id="clip-path-38" transform="translate(-7.16 -9.46)"><path class="cls-1" d="M160.52,17.28l-1.74-1.74a1.81,1.81,0,0,0,.33.26,4.72,4.72,0,0,0,.83.4c0.32,0.13.68,0.24,1.08,0.38,0.58,0.19,1.18.4,1.8,0.63a6.65,6.65,0,0,1,1.71.93,5,5,0,0,1,.49.43l1.74,1.74a5,5,0,0,0-.49-0.43,6.65,6.65,0,0,0-1.71-.93c-0.62-.22-1.22-0.44-1.8-0.63-0.4-.13-0.76-0.25-1.08-0.38a4.72,4.72,0,0,1-.83-0.4A1.8,1.8,0,0,1,160.52,17.28Z"/></clipPath><clipPath id="clip-path-39" transform="translate(-7.16 -9.46)"><path class="cls-1" d="M162.6,11.24l-1.74-1.74a8.83,8.83,0,0,1,2.93.53,7.56,7.56,0,0,1,2.62,1.56l1.74,1.74a7.56,7.56,0,0,0-2.62-1.56A8.83,8.83,0,0,0,162.6,11.24Z"/></clipPath><clipPath id="clip-path-40" transform="translate(-7.16 -9.46)"><path class="cls-1" d="M157.24,19.76L155.5,18a4.33,4.33,0,0,1-.85-1.25,4.69,4.69,0,0,1-.37-2,4.75,4.75,0,0,1,.58-2.42,5,5,0,0,1,1.51-1.65,6.57,6.57,0,0,1,2.11-1,9.65,9.65,0,0,1,2.37-.3l1.74,1.74a9.65,9.65,0,0,0-2.37.3,6.57,6.57,0,0,0-2.11,1,5,5,0,0,0-1.51,1.65,4.75,4.75,0,0,0-.58,2.42,4.69,4.69,0,0,0,.37,2A4.33,4.33,0,0,0,157.24,19.76Z"/></clipPath></defs><title>studio-logo</title><g class="cls-2"><g class="cls-2"><g class="cls-3"><g class="cls-2"><path class="cls-4" d="M48.22,23.23l-1.74-1.74a5.2,5.2,0,0,0,.17-1.31l1.74,1.74a5.2,5.2,0,0,1-.17,1.31" transform="translate(-7.16 -9.46)"/></g></g></g><g class="cls-2"><g class="cls-5"><g class="cls-2"><path class="cls-6" d="M43,24.61l-1.74-1.74a2.56,2.56,0,0,0,.63.46l1.74,1.74A2.56,2.56,0,0,1,43,24.61" transform="translate(-7.16 -9.46)"/><path class="cls-7" d="M43.6,25.06l-1.74-1.74L42,23.38a2.75,2.75,0,0,0,.42.16l1.74,1.74a2.75,2.75,0,0,1-.42-0.16l-0.12-.06" transform="translate(-7.16 -9.46)"/><path class="cls-8" d="M44.15,25.28L42.4,23.54a3.5,3.5,0,0,0,.56.11l1.74,1.74a3.5,3.5,0,0,1-.56-0.11" transform="translate(-7.16 -9.46)"/><path class="cls-9" d="M44.71,25.39L43,23.64l0.49,0h0.21l1.74,1.74H45.2l-0.49,0" transform="translate(-7.16 -9.46)"/><path class="cls-10" d="M45.41,25.41l-1.74-1.74a4,4,0,0,0,.61-0.07L46,25.33a4,4,0,0,1-.61.07" transform="translate(-7.16 -9.46)"/><path class="cls-11" d="M46,25.33l-1.74-1.74a3,3,0,0,0,.53-0.16l1.74,1.74a3,3,0,0,1-.53.16" transform="translate(-7.16 -9.46)"/><path class="cls-4" d="M46.55,25.18l-1.74-1.74,0.12-.05a2.7,2.7,0,0,0,1-.78,3.24,3.24,0,0,0,.55-1.12l1.74,1.74a3.24,3.24,0,0,1-.55,1.12,2.7,2.7,0,0,1-1,.78l-0.12.05" transform="translate(-7.16 -9.46)"/></g></g></g><g class="cls-2"><g class="cls-12"><g class="cls-2"><path class="cls-4" d="M39.81,27.14l-1.74-1.74a6.14,6.14,0,0,1-1.37-2.1,7.55,7.55,0,0,1-.5-2.8l1.74,1.74a7.55,7.55,0,0,0,.5,2.8,6.14,6.14,0,0,0,1.37,2.1" transform="translate(-7.16 -9.46)"/></g></g></g><polygon class="cls-13" points="41.25 2.2 39.5 0.46 43.61 0.46 45.35 2.2 41.25 2.2"/><polygon class="cls-14" points="41.24 12.45 39.49 10.7 39.5 0.46 41.25 2.2 41.24 12.45"/><polygon class="cls-14" points="30.77 12.78 29.03 11.04 29.04 0.46 30.79 2.2 30.77 12.78"/><path class="cls-15" d="M52.51,11.67V22.25A7.38,7.38,0,0,1,52,25a6.12,6.12,0,0,1-1.48,2.16,7,7,0,0,1-2.31,1.4,9.29,9.29,0,0,1-6,0,6.74,6.74,0,0,1-2.27-1.4A6.14,6.14,0,0,1,38.43,25a7.55,7.55,0,0,1-.5-2.8V11.67H42V21.91a4.82,4.82,0,0,0,.18,1.31,3.41,3.41,0,0,0,.56,1.12,2.49,2.49,0,0,0,1,.78,3.92,3.92,0,0,0,3,0,2.7,2.7,0,0,0,1-.78,3.24,3.24,0,0,0,.55-1.12,5.2,5.2,0,0,0,.17-1.31V11.67h4.1Z" transform="translate(-7.16 -9.46)"/><polygon class="cls-13" points="30.79 2.2 29.04 0.46 33.12 0.46 34.86 2.2 30.79 2.2"/></g><g class="cls-2"><polygon class="cls-14" points="20.16 19.18 18.42 17.44 18.43 3.96 20.18 5.7 20.16 19.18"/><polygon class="cls-15" points="29.09 2.2 29.08 5.7 24.28 5.7 24.26 19.18 20.16 19.18 20.18 5.7 15.38 5.7 15.39 2.2 29.09 2.2"/><polygon class="cls-14" points="15.38 5.7 13.64 3.96 13.64 0.46 15.39 2.2 15.38 5.7"/><polygon class="cls-13" points="15.39 2.2 13.64 0.46 27.34 0.46 29.09 2.2 15.39 2.2"/></g><g class="cls-2"><g class="cls-2"><g class="cls-16"><g class="cls-2"><path class="cls-4" d="M17.38,23l-1.74-1.74a1.9,1.9,0,0,0-.2-0.23l1.74,1.74a1.9,1.9,0,0,1,.2.23" transform="translate(-7.16 -9.46)"/></g></g></g><g class="cls-2"><g class="cls-17"><g class="cls-2"><path class="cls-6" d="M11.89,24.23l-1.74-1.74a5.26,5.26,0,0,0,1.29.92l1.74,1.74a5.26,5.26,0,0,1-1.29-.92" transform="translate(-7.16 -9.46)"/><path class="cls-7" d="M13.18,25.16l-1.74-1.74,0.06,0a5,5,0,0,0,.91.36l1.74,1.74a5,5,0,0,1-.91-0.36l-0.06,0" transform="translate(-7.16 -9.46)"/><path class="cls-8" d="M14.15,25.54L12.4,23.8a4.23,4.23,0,0,0,.68.13l1.74,1.74a4.23,4.23,0,0,1-.68-0.13" transform="translate(-7.16 -9.46)"/><path class="cls-9" d="M14.83,25.68l-1.74-1.74,0.43,0h0.17l1.74,1.74H15.26l-0.43,0" transform="translate(-7.16 -9.46)"/><path class="cls-10" d="M15.44,25.7L13.69,24a4.2,4.2,0,0,0,.65-0.08l1.74,1.74a4.2,4.2,0,0,1-.65.08" transform="translate(-7.16 -9.46)"/><path class="cls-11" d="M16.09,25.61l-1.74-1.74h0.06a2.54,2.54,0,0,0,.41-0.12l1.74,1.74a2.54,2.54,0,0,1-.41.12H16.09" transform="translate(-7.16 -9.46)"/><path class="cls-4" d="M16.57,25.48l-1.74-1.74a1.92,1.92,0,0,0,.35-0.18A1.59,1.59,0,0,0,15.68,23a1.85,1.85,0,0,0,.19-0.86,1.41,1.41,0,0,0-.23-0.82L17.38,23a1.41,1.41,0,0,1,.23.82,1.85,1.85,0,0,1-.19.86,1.59,1.59,0,0,1-.51.58,1.92,1.92,0,0,1-.35.18" transform="translate(-7.16 -9.46)"/></g></g></g><g class="cls-2"><g class="cls-18"><g class="cls-2"><path class="cls-4" d="M9,26.72L7.24,25l-0.09-.09L8.9,26.64,9,26.72" transform="translate(-7.16 -9.46)"/></g></g></g><polygon class="cls-14" points="1.74 17.17 0 15.43 2.69 12.69 4.44 14.44 1.74 17.17"/><g class="cls-2"><g class="cls-19"><g class="cls-2"><path class="cls-4" d="M19.28,16.08l-1.74-1.74A3.45,3.45,0,0,0,17.25,14L19,15.77a3.45,3.45,0,0,1,.28.32" transform="translate(-7.16 -9.46)"/></g></g></g><g class="cls-2"><g class="cls-20"><g class="cls-2"><path class="cls-7" d="M15.42,17.94l-1.74-1.74c0.31,0.13.67,0.24,1.08,0.38,0.58,0.19,1.18.4,1.8,0.63a7.15,7.15,0,0,1,.8.36l1.74,1.74a7.15,7.15,0,0,0-.8-0.36c-0.62-.22-1.22-0.44-1.8-0.63-0.4-.13-0.76-0.25-1.08-0.38" transform="translate(-7.16 -9.46)"/><path class="cls-6" d="M19.09,19.3l-1.74-1.74a6.49,6.49,0,0,1,.9.57,4.85,4.85,0,0,1,.51.44l1.74,1.74A4.85,4.85,0,0,0,20,19.87a6.49,6.49,0,0,0-.9-0.57" transform="translate(-7.16 -9.46)"/></g></g></g><g class="cls-2"><g class="cls-21"><g class="cls-2"><path class="cls-6" d="M14.26,17.28l-1.74-1.74a1.8,1.8,0,0,0,.33.26l0.26,0.15,1.74,1.74-0.26-.15a1.8,1.8,0,0,1-.33-0.26" transform="translate(-7.16 -9.46)"/><path class="cls-7" d="M14.85,17.69L13.1,15.94a4.57,4.57,0,0,0,.57.25l1.74,1.74a4.57,4.57,0,0,1-.57-0.25" transform="translate(-7.16 -9.46)"/></g></g></g><g class="cls-2"><g class="cls-22"><g class="cls-2"><path class="cls-4" d="M11,19.76L9.23,18a4.15,4.15,0,0,1-.85-1.24l1.74,1.74A4.15,4.15,0,0,0,11,19.76" transform="translate(-7.16 -9.46)"/></g></g></g><g class="cls-2"><g class="cls-23"><g class="cls-2"><path class="cls-9" d="M16.33,11.24L14.59,9.49a8,8,0,0,1,.86,0l1.74,1.74a8,8,0,0,0-.86,0" transform="translate(-7.16 -9.46)"/><path class="cls-8" d="M17.19,11.28L15.45,9.54a8.92,8.92,0,0,1,1.44.28l1.74,1.74a8.92,8.92,0,0,0-1.44-.28" transform="translate(-7.16 -9.46)"/><path class="cls-7" d="M18.63,11.56L16.89,9.82,17.53,10a7.9,7.9,0,0,1,1,.45l1.74,1.74a7.9,7.9,0,0,0-1-.45l-0.64-.2" transform="translate(-7.16 -9.46)"/><path class="cls-6" d="M20.32,12.22l-1.74-1.74a7.58,7.58,0,0,1,1.58,1.1l1.74,1.74a7.58,7.58,0,0,0-1.58-1.1" transform="translate(-7.16 -9.46)"/></g></g></g><g class="cls-2"><g class="cls-24"><g class="cls-2"><path class="cls-4" d="M10.13,18.51L8.38,16.77a4.55,4.55,0,0,1-.37-2A4.75,4.75,0,0,1,8.6,12.4a4.86,4.86,0,0,1,1.51-1.65,6.29,6.29,0,0,1,1.23-.66l1.74,1.74a6.29,6.29,0,0,0-1.23.66,4.86,4.86,0,0,0-1.51,1.65,4.75,4.75,0,0,0-.58,2.42,4.55,4.55,0,0,0,.37,2" transform="translate(-7.16 -9.46)"/><path class="cls-11" d="M13.09,11.82l-1.74-1.74a7.27,7.27,0,0,1,.87-0.29l0.44-.1,1.74,1.74-0.44.1a7.27,7.27,0,0,0-.87.29" transform="translate(-7.16 -9.46)"/><path class="cls-10" d="M14.4,11.43L12.66,9.69a9.63,9.63,0,0,1,1.5-.19l1.74,1.74a9.63,9.63,0,0,0-1.5.19" transform="translate(-7.16 -9.46)"/><path class="cls-9" d="M15.9,11.25L14.16,9.5h0.43l1.74,1.74H15.9" transform="translate(-7.16 -9.46)"/></g></g></g><path class="cls-15" d="M16.33,11.24a8.84,8.84,0,0,1,2.94.53,7.64,7.64,0,0,1,2.62,1.56l-2.62,2.76A3.64,3.64,0,0,0,17.9,15a3.93,3.93,0,0,0-1.65-.4,5.23,5.23,0,0,0-.83.07,2.12,2.12,0,0,0-.76.28,1.72,1.72,0,0,0-.56.52,1.41,1.41,0,0,0-.23.83,1.35,1.35,0,0,0,.18.72,1.59,1.59,0,0,0,.53.5,4.43,4.43,0,0,0,.83.4c0.31,0.13.67,0.24,1.08,0.38,0.58,0.19,1.18.4,1.8,0.63a6.74,6.74,0,0,1,1.7.93,5,5,0,0,1,1.28,1.43,4.12,4.12,0,0,1,.5,2.12A5.55,5.55,0,0,1,21.23,26a5.07,5.07,0,0,1-1.46,1.76,6.14,6.14,0,0,1-2.09,1,8.73,8.73,0,0,1-2.42.33,10,10,0,0,1-3.53-.64A7.51,7.51,0,0,1,8.9,26.64L11.6,23.9a5,5,0,0,0,1.64,1.29,4.44,4.44,0,0,0,2,.51,4.16,4.16,0,0,0,.89-0.1,2.19,2.19,0,0,0,.76-0.31,1.59,1.59,0,0,0,.51-0.58,1.85,1.85,0,0,0,.19-0.86A1.41,1.41,0,0,0,17.38,23a2.4,2.4,0,0,0-.68-0.61,5.83,5.83,0,0,0-1.11-.5l-1.5-.49a13.22,13.22,0,0,1-1.59-.62,5.45,5.45,0,0,1-1.39-.93,4.12,4.12,0,0,1-1-1.37,4.55,4.55,0,0,1-.37-2,4.75,4.75,0,0,1,.58-2.42,4.86,4.86,0,0,1,1.51-1.65,6.61,6.61,0,0,1,2.11-1A9.65,9.65,0,0,1,16.33,11.24Z" transform="translate(-7.16 -9.46)"/></g><g class="cls-2"><g class="cls-2"><g class="cls-25"><g class="cls-2"><path class="cls-9" d="M61.75,25.1L60,23.35h0.43l1.74,1.74H61.75" transform="translate(-7.16 -9.46)"/><path class="cls-10" d="M62.18,25.09l-1.74-1.74a8.62,8.62,0,0,0,1.35-.16l1.74,1.74a8.62,8.62,0,0,1-1.35.16" transform="translate(-7.16 -9.46)"/><path class="cls-11" d="M63.53,24.92l-1.74-1.74,0.34-.08a5.24,5.24,0,0,0,.75-0.24l1.74,1.74a5.24,5.24,0,0,1-.75.24l-0.34.08" transform="translate(-7.16 -9.46)"/><path class="cls-4" d="M64.62,24.61l-1.74-1.74a4.78,4.78,0,0,0,1.05-.59,4.06,4.06,0,0,0,1.25-1.53l1.74,1.74A4.06,4.06,0,0,1,65.67,24a4.78,4.78,0,0,1-1.05.59" transform="translate(-7.16 -9.46)"/></g></g></g><polygon class="cls-13" points="52.65 15.63 50.9 13.89 52.84 13.89 54.59 15.63 52.65 15.63"/><g class="cls-2"><g class="cls-26"><g class="cls-2"><path class="cls-4" d="M66.92,22.49l-1.74-1.74a5.48,5.48,0,0,0,.47-2.37A5.5,5.5,0,0,0,65.18,16a4.27,4.27,0,0,0-.8-1.12l1.74,1.74a4.27,4.27,0,0,1,.8,1.12,5.5,5.5,0,0,1,.46,2.39,5.48,5.48,0,0,1-.47,2.37" transform="translate(-7.16 -9.46)"/></g></g></g><g class="cls-2"><g class="cls-27"><g class="cls-2"><path class="cls-9" d="M62,11.67L60.21,9.92a15,15,0,0,1,1.62.09l1.74,1.74A15,15,0,0,0,62,11.67" transform="translate(-7.16 -9.46)"/><path class="cls-8" d="M63.58,11.76L61.83,10a15.52,15.52,0,0,1,1.93.33l0.38,0.1,1.74,1.74-0.38-.1a15.52,15.52,0,0,0-1.93-.33" transform="translate(-7.16 -9.46)"/><path class="cls-7" d="M65.88,12.19l-1.74-1.74a9.1,9.1,0,0,1,1.78.7l1.74,1.74a9.1,9.1,0,0,0-1.78-.7" transform="translate(-7.16 -9.46)"/><path class="cls-6" d="M67.66,12.89l-1.74-1.74a8.48,8.48,0,0,1,1,.59,6.63,6.63,0,0,1,.84.71l1.74,1.74a6.63,6.63,0,0,0-.84-0.71,8.48,8.48,0,0,0-1-.59" transform="translate(-7.16 -9.46)"/></g></g></g><path class="cls-15" d="M70.83,16.08a8.76,8.76,0,0,1,.83,4A8.3,8.3,0,0,1,70.82,24a7.83,7.83,0,0,1-2.18,2.66,9.15,9.15,0,0,1-3.06,1.53,12.29,12.29,0,0,1-3.45.49H55.8l0-17H62a15.22,15.22,0,0,1,3.55.42,8.92,8.92,0,0,1,3.12,1.39A7.12,7.12,0,0,1,70.83,16.08Zm-3.9,6.4a5.48,5.48,0,0,0,.47-2.37,5.5,5.5,0,0,0-.46-2.39,4.06,4.06,0,0,0-1.25-1.51,5.2,5.2,0,0,0-1.77-.8,8.64,8.64,0,0,0-2.05-.24h-2V25.1h1.94a8.69,8.69,0,0,0,2.12-.25,4.93,4.93,0,0,0,1.8-.83,4.06,4.06,0,0,0,1.25-1.53" transform="translate(-7.16 -9.46)"/><polygon class="cls-14" points="48.64 19.18 46.9 17.44 46.92 0.46 48.66 2.2 48.64 19.18"/><polygon class="cls-13" points="48.66 2.2 46.92 0.46 53.05 0.46 54.79 2.2 48.66 2.2"/></g><g class="cls-2"><polygon class="cls-15" points="71.34 2.2 71.32 19.18 67.19 19.18 67.22 2.2 71.34 2.2"/><polygon class="cls-14" points="67.19 19.18 65.45 17.44 65.47 0.46 67.22 2.2 67.19 19.18"/><polygon class="cls-13" points="67.22 2.2 65.47 0.46 69.6 0.46 71.34 2.2 67.22 2.2"/></g><g class="cls-2"><g class="cls-2"><g class="cls-28"><g class="cls-2"><path class="cls-4" d="M93.93,23.87l-1.74-1.74a4.65,4.65,0,0,0,1-1.66l1.74,1.74a4.65,4.65,0,0,1-1,1.66" transform="translate(-7.16 -9.46)"/></g></g></g><g class="cls-2"><g class="cls-29"><g class="cls-2"><path class="cls-7" d="M88.46,25l-1.74-1.74a4.52,4.52,0,0,0,.6.22l1.74,1.74a4.52,4.52,0,0,1-.6-0.22" transform="translate(-7.16 -9.46)"/><path class="cls-8" d="M89.07,25.19l-1.74-1.74a4.83,4.83,0,0,0,.78.15l1.74,1.74a4.83,4.83,0,0,1-.78-0.15" transform="translate(-7.16 -9.46)"/><path class="cls-9" d="M89.85,25.34L88.1,23.59a5.42,5.42,0,0,0,.59,0h0.25l1.74,1.74H90.43a5.42,5.42,0,0,1-.59,0" transform="translate(-7.16 -9.46)"/><path class="cls-10" d="M90.68,25.36l-1.74-1.74a5.09,5.09,0,0,0,.79-0.1l1.74,1.74a5.09,5.09,0,0,1-.79.1" transform="translate(-7.16 -9.46)"/><path class="cls-11" d="M91.47,25.27l-1.74-1.74a4.6,4.6,0,0,0,.81-0.24L92.28,25a4.6,4.6,0,0,1-.81.24" transform="translate(-7.16 -9.46)"/><path class="cls-4" d="M92.28,25l-1.74-1.74,0.12-.05a4.68,4.68,0,0,0,1.53-1.1l1.74,1.74A4.68,4.68,0,0,1,92.4,25L92.28,25" transform="translate(-7.16 -9.46)"/></g></g></g><g class="cls-2"><g class="cls-30"><g class="cls-2"><path class="cls-6" d="M87.09,24l-1.74-1.74a4.6,4.6,0,0,0,1.13.82l1.74,1.74A4.6,4.6,0,0,1,87.09,24" transform="translate(-7.16 -9.46)"/><path class="cls-7" d="M88.22,24.85l-1.74-1.74,0.24,0.12L88.46,25l-0.24-.12" transform="translate(-7.16 -9.46)"/></g></g></g><g class="cls-2"><g class="cls-31"><g class="cls-2"><path class="cls-4" d="M94.94,22.21L93.2,20.47a6,6,0,0,0,.36-2.12,5.73,5.73,0,0,0-.36-2.06,4.87,4.87,0,0,0-1-1.65l-0.12-.13,1.74,1.74L94,16.38a4.87,4.87,0,0,1,1,1.65,5.73,5.73,0,0,1,.36,2.06,6,6,0,0,1-.36,2.12" transform="translate(-7.16 -9.46)"/></g></g></g><g class="cls-2"><g class="cls-32"><g class="cls-2"><path class="cls-4" d="M83.72,26.53L82,24.79A8.35,8.35,0,0,1,80.15,22a9.37,9.37,0,0,1-.7-3.68,9.26,9.26,0,0,1,.71-3.68,8,8,0,0,1,1.93-2.8,8.64,8.64,0,0,1,2.64-1.66L86.48,12a8.64,8.64,0,0,0-2.64,1.66,8,8,0,0,0-1.93,2.8,9.26,9.26,0,0,0-.71,3.68,9.37,9.37,0,0,0,.7,3.68,8.35,8.35,0,0,0,1.82,2.77" transform="translate(-7.16 -9.46)"/><path class="cls-11" d="M86.48,12l-1.74-1.74L85,10.09a9.46,9.46,0,0,1,1.44-.41l1.74,1.74a9.46,9.46,0,0,0-1.44.41L86.48,12" transform="translate(-7.16 -9.46)"/><path class="cls-10" d="M88.2,11.43L86.46,9.68a10.89,10.89,0,0,1,1.7-.21l1.74,1.74a10.89,10.89,0,0,0-1.7.21" transform="translate(-7.16 -9.46)"/><path class="cls-9" d="M89.9,11.22L88.16,9.48H88.7A11.9,11.9,0,0,1,90,9.53l1.74,1.74a11.9,11.9,0,0,0-1.28-.07H89.9" transform="translate(-7.16 -9.46)"/><path class="cls-8" d="M91.73,11.28L90,9.53a10.24,10.24,0,0,1,1.65.31l1.74,1.74a10.24,10.24,0,0,0-1.65-.31" transform="translate(-7.16 -9.46)"/><path class="cls-7" d="M93.39,11.59L91.64,9.85Q92,10,92.4,10.09a9.26,9.26,0,0,1,1.12.49l1.74,1.74a9.26,9.26,0,0,0-1.12-.49q-0.37-.14-0.76-0.25" transform="translate(-7.16 -9.46)"/><path class="cls-6" d="M95.26,12.33l-1.74-1.74a8.22,8.22,0,0,1,1.81,1.28l0.22,0.21,1.74,1.74-0.22-.21a8.22,8.22,0,0,0-1.81-1.28" transform="translate(-7.16 -9.46)"/></g></g></g><path class="cls-15" d="M99,16.41a9.24,9.24,0,0,1,.69,3.68,9.38,9.38,0,0,1-.7,3.68,8.27,8.27,0,0,1-1.94,2.86,8.55,8.55,0,0,1-2.93,1.83,10.31,10.31,0,0,1-3.7.65,10.2,10.2,0,0,1-3.68-.65,8.7,8.7,0,0,1-2.93-1.83,8.34,8.34,0,0,1-1.92-2.86,9.37,9.37,0,0,1-.7-3.68,9.26,9.26,0,0,1,.71-3.68,8,8,0,0,1,1.93-2.8,8.72,8.72,0,0,1,2.93-1.77,11.11,11.11,0,0,1,7.38,0,8.52,8.52,0,0,1,2.93,1.77A7.9,7.9,0,0,1,99,16.41Zm-4.06,5.8a6,6,0,0,0,.36-2.12A5.73,5.73,0,0,0,94.95,18a4.87,4.87,0,0,0-1-1.65,4.48,4.48,0,0,0-1.54-1.08,4.92,4.92,0,0,0-2-.4,4.85,4.85,0,0,0-2,.4A4.66,4.66,0,0,0,85.94,18a5.94,5.94,0,0,0-.35,2.06,6.22,6.22,0,0,0,.36,2.12,5,5,0,0,0,1,1.66A4.63,4.63,0,0,0,88.46,25a5.1,5.1,0,0,0,3.94,0,4.78,4.78,0,0,0,2.54-2.76" transform="translate(-7.16 -9.46)"/></g><g class="cls-2"><g class="cls-2"><g class="cls-33"><g class="cls-2"><path class="cls-6" d="M112.83,19l-1.74-1.74a4.49,4.49,0,0,1,.36.32l1.74,1.74a4.49,4.49,0,0,0-.36-0.32" transform="translate(-7.16 -9.46)"/></g></g></g><g class="cls-2"><g class="cls-34"><g class="cls-2"><path class="cls-6" d="M106,24.87l-1.74-1.74a3.12,3.12,0,0,0,.28.25,2.6,2.6,0,0,0,.41.27l1.74,1.74a2.6,2.6,0,0,1-.41-0.27,3.12,3.12,0,0,1-.28-0.25" transform="translate(-7.16 -9.46)"/><path class="cls-7" d="M106.69,25.4L105,23.65a2.56,2.56,0,0,0,.5.2l1.74,1.74a2.56,2.56,0,0,1-.5-0.2" transform="translate(-7.16 -9.46)"/><path class="cls-8" d="M107.19,25.59l-1.74-1.74a2.85,2.85,0,0,0,.46.09l1.74,1.74a2.85,2.85,0,0,1-.46-0.09" transform="translate(-7.16 -9.46)"/><path class="cls-9" d="M107.66,25.68l-1.74-1.74,0.36,0h0.15l1.74,1.74H108l-0.36,0" transform="translate(-7.16 -9.46)"/><path class="cls-10" d="M108.16,25.7L106.42,24a3,3,0,0,0,.47-0.06l1.74,1.74a3,3,0,0,1-.47.06" transform="translate(-7.16 -9.46)"/><path class="cls-11" d="M108.63,25.64l-1.74-1.74a2.69,2.69,0,0,0,.47-0.14l1.74,1.74a2.69,2.69,0,0,1-.47.14" transform="translate(-7.16 -9.46)"/><path class="cls-4" d="M109.1,25.5l-1.74-1.74a2.61,2.61,0,0,0,.69-0.42,2.28,2.28,0,0,0,.76-1.85,2.31,2.31,0,0,0-.3-1.24,2.39,2.39,0,0,0-.36-0.46l1.74,1.74a2.39,2.39,0,0,1,.36.46,2.31,2.31,0,0,1,.3,1.24,2.28,2.28,0,0,1-.76,1.85,2.61,2.61,0,0,1-.69.42" transform="translate(-7.16 -9.46)"/></g></g></g><g class="cls-2"><g class="cls-35"><g class="cls-2"><path class="cls-4" d="M103,27.2l-1.74-1.74a5.61,5.61,0,0,1-.52-0.6,5.49,5.49,0,0,1-.9-1.81l1.74,1.74a5.49,5.49,0,0,0,.9,1.81,5.61,5.61,0,0,0,.52.6" transform="translate(-7.16 -9.46)"/></g></g></g><polygon class="cls-36" points="94.45 15.33 92.71 13.58 96.38 12.45 98.12 14.19 94.45 15.33"/><g class="cls-2"><g class="cls-37"><g class="cls-2"><path class="cls-11" d="M106.77,17.81L105,16.07l0.17,0,1.74,1.74-0.17,0" transform="translate(-7.16 -9.46)"/><path class="cls-10" d="M106.95,17.77L105.2,16a5.9,5.9,0,0,1,.68-0.1l0.4,0L108,17.65l-0.4,0a5.9,5.9,0,0,0-.68.1" transform="translate(-7.16 -9.46)"/><path class="cls-9" d="M108,17.65l-1.74-1.74h0.44a9.28,9.28,0,0,1,1,.05l1.74,1.74a9.28,9.28,0,0,0-1-.05H108" transform="translate(-7.16 -9.46)"/><path class="cls-8" d="M109.48,17.69l-1.74-1.74a7.8,7.8,0,0,1,1.26.24l1.74,1.74a7.8,7.8,0,0,0-1.26-.24" transform="translate(-7.16 -9.46)"/><path class="cls-7" d="M110.74,17.93L109,16.19l0.14,0a5.82,5.82,0,0,1,1,.42l1.74,1.74a5.82,5.82,0,0,0-1-.42l-0.14,0" transform="translate(-7.16 -9.46)"/><path class="cls-6" d="M111.92,18.39l-1.74-1.74a5.08,5.08,0,0,1,.91.61L112.83,19a5.08,5.08,0,0,0-.91-0.61" transform="translate(-7.16 -9.46)"/></g></g></g><polygon class="cls-13" points="96.2 2.2 94.45 0.46 104.86 0.46 106.6 2.2 96.2 2.2"/><polygon class="cls-14" points="95.78 11.92 94.03 10.17 94.45 0.46 96.2 2.2 95.78 11.92"/><path class="cls-15" d="M113.76,11.67v3.45h-6.84l-0.15,2.69a5.68,5.68,0,0,1,.85-0.13c0.31,0,.59,0,0.85,0a8.28,8.28,0,0,1,2.4.33,5.39,5.39,0,0,1,2,1,4.79,4.79,0,0,1,1.31,1.69,5.44,5.44,0,0,1,.47,2.35,6.13,6.13,0,0,1-.55,2.7,5.48,5.48,0,0,1-1.48,1.88,6.32,6.32,0,0,1-2.11,1.12,7.83,7.83,0,0,1-2.42.38,8,8,0,0,1-2.19-.31A7.09,7.09,0,0,1,104,28a5.65,5.65,0,0,1-1.46-1.36,5.49,5.49,0,0,1-.9-1.81l3.67-1.13a2.8,2.8,0,0,0,1,1.47,2.89,2.89,0,0,0,3.52,0,2.28,2.28,0,0,0,.76-1.85,2.31,2.31,0,0,0-.3-1.24,2.46,2.46,0,0,0-.8-0.81,3.42,3.42,0,0,0-1.12-.41,6.46,6.46,0,0,0-1.24-.13,12.27,12.27,0,0,0-2.08.21,11.71,11.71,0,0,0-2.07.54l0.42-9.71h10.41Z" transform="translate(-7.16 -9.46)"/></g><g class="cls-2"><g class="cls-2"><g class="cls-38"><g class="cls-2"><path class="cls-4" d="M125,24.72L123.28,23a1.85,1.85,0,0,0,.19-0.86,1.36,1.36,0,0,0-.24-0.82A2,2,0,0,0,123,21l1.74,1.74A2,2,0,0,1,125,23a1.36,1.36,0,0,1,.24.82,1.85,1.85,0,0,1-.19.86" transform="translate(-7.16 -9.46)"/></g></g></g><g class="cls-2"><g class="cls-39"><g class="cls-2"><path class="cls-6" d="M119.49,24.23l-1.74-1.74a5.33,5.33,0,0,0,1.28.92l1.74,1.74a5.33,5.33,0,0,1-1.28-.92" transform="translate(-7.16 -9.46)"/><path class="cls-7" d="M120.77,25.16L119,23.41l0.06,0a5.11,5.11,0,0,0,.91.36l1.74,1.74a5.11,5.11,0,0,1-.91-0.36l-0.06,0" transform="translate(-7.16 -9.46)"/><path class="cls-8" d="M121.74,25.54L120,23.8a4.26,4.26,0,0,0,.69.13l1.74,1.74a4.26,4.26,0,0,1-.69-0.13" transform="translate(-7.16 -9.46)"/><path class="cls-9" d="M122.43,25.68l-1.74-1.74,0.43,0h0.17L123,25.7h-0.17l-0.43,0" transform="translate(-7.16 -9.46)"/><path class="cls-10" d="M123,25.7L121.29,24a4.2,4.2,0,0,0,.65-0.08l1.74,1.74a4.2,4.2,0,0,1-.65.08" transform="translate(-7.16 -9.46)"/><path class="cls-11" d="M123.69,25.61l-1.74-1.74H122a2.54,2.54,0,0,0,.41-0.12l1.74,1.74a2.54,2.54,0,0,1-.41.12h-0.06" transform="translate(-7.16 -9.46)"/><path class="cls-4" d="M124.16,25.48l-1.74-1.74a1.92,1.92,0,0,0,.35-0.18,1.7,1.7,0,0,0,.52-0.58L125,24.72a1.7,1.7,0,0,1-.52.58,1.92,1.92,0,0,1-.35.18" transform="translate(-7.16 -9.46)"/></g></g></g><g class="cls-2"><g class="cls-40"><g class="cls-2"><path class="cls-4" d="M116.61,26.75L114.87,25l-0.11-.11,1.74,1.74,0.11,0.11" transform="translate(-7.16 -9.46)"/></g></g></g><polygon class="cls-14" points="109.34 17.17 107.6 15.43 110.29 12.69 112.04 14.44 109.34 17.17"/><g class="cls-2"><g class="cls-41"><g class="cls-2"><path class="cls-4" d="M126.88,16.08l-1.74-1.74a3.45,3.45,0,0,0-.28-0.32l1.74,1.74a3.45,3.45,0,0,1,.28.32" transform="translate(-7.16 -9.46)"/></g></g></g><g class="cls-2"><g class="cls-42"><g class="cls-2"><path class="cls-7" d="M123,17.94l-1.74-1.74c0.31,0.13.67,0.24,1.08,0.38,0.58,0.19,1.17.4,1.8,0.63a7.15,7.15,0,0,1,.8.36l1.74,1.74a7.15,7.15,0,0,0-.8-0.36c-0.63-.22-1.22-0.44-1.8-0.63-0.4-.13-0.76-0.25-1.08-0.38" transform="translate(-7.16 -9.46)"/><path class="cls-6" d="M126.69,19.3l-1.74-1.74a6.49,6.49,0,0,1,.9.57,4.8,4.8,0,0,1,.5.44l1.74,1.74a4.8,4.8,0,0,0-.5-0.44,6.49,6.49,0,0,0-.9-0.57" transform="translate(-7.16 -9.46)"/></g></g></g><g class="cls-2"><g class="cls-43"><g class="cls-2"><path class="cls-6" d="M122.19,17.54l-1.74-1.74,0.25,0.15,1.74,1.74-0.25-.15" transform="translate(-7.16 -9.46)"/><path class="cls-7" d="M122.44,17.69l-1.74-1.74a4.65,4.65,0,0,0,.57.25L123,17.94a4.65,4.65,0,0,1-.57-0.25" transform="translate(-7.16 -9.46)"/></g></g></g><g class="cls-2"><g class="cls-44"><g class="cls-2"><path class="cls-6" d="M121.85,17.28l-1.74-1.74a1.86,1.86,0,0,0,.34.26l1.74,1.74a1.86,1.86,0,0,1-.34-0.26" transform="translate(-7.16 -9.46)"/></g></g></g><g class="cls-2"><g class="cls-45"><g class="cls-2"><path class="cls-4" d="M118.58,19.76L116.83,18a4.15,4.15,0,0,1-.85-1.24l1.74,1.74a4.15,4.15,0,0,0,.85,1.24" transform="translate(-7.16 -9.46)"/></g></g></g><g class="cls-2"><g class="cls-46"><g class="cls-2"><path class="cls-9" d="M123.94,11.24l-1.74-1.74a7.91,7.91,0,0,1,.85,0l1.74,1.74a7.91,7.91,0,0,0-.85,0" transform="translate(-7.16 -9.46)"/><path class="cls-8" d="M124.79,11.28L123,9.54a9,9,0,0,1,1.45.28l1.74,1.74a9,9,0,0,0-1.45-.28" transform="translate(-7.16 -9.46)"/><path class="cls-7" d="M126.24,11.57l-1.74-1.74,0.64,0.2a7.9,7.9,0,0,1,1,.45l1.74,1.74a7.9,7.9,0,0,0-1-.45l-0.64-.2" transform="translate(-7.16 -9.46)"/><path class="cls-6" d="M127.92,12.22l-1.74-1.74a7.58,7.58,0,0,1,1.58,1.1l1.74,1.74a7.58,7.58,0,0,0-1.58-1.1" transform="translate(-7.16 -9.46)"/></g></g></g><g class="cls-2"><g class="cls-47"><g class="cls-2"><path class="cls-4" d="M117.73,18.51L116,16.77a4.55,4.55,0,0,1-.38-2,4.84,4.84,0,0,1,.58-2.42,5,5,0,0,1,1.51-1.65,6.49,6.49,0,0,1,1.24-.66l1.74,1.74a6.49,6.49,0,0,0-1.24.66,5,5,0,0,0-1.51,1.65,4.84,4.84,0,0,0-.58,2.42,4.55,4.55,0,0,0,.38,2" transform="translate(-7.16 -9.46)"/><path class="cls-11" d="M120.68,11.82l-1.74-1.74a7.3,7.3,0,0,1,.88-0.29l0.44-.1L122,11.43l-0.44.1a7.3,7.3,0,0,0-.88.29" transform="translate(-7.16 -9.46)"/><path class="cls-10" d="M122,11.43l-1.74-1.74a9.63,9.63,0,0,1,1.5-.19l1.74,1.74a9.63,9.63,0,0,0-1.5.19" transform="translate(-7.16 -9.46)"/><path class="cls-9" d="M123.5,11.25L121.76,9.5h0.43l1.74,1.74H123.5" transform="translate(-7.16 -9.46)"/></g></g></g><path class="cls-15" d="M123.94,11.24a8.88,8.88,0,0,1,2.94.53,7.64,7.64,0,0,1,2.62,1.56l-2.62,2.76A3.64,3.64,0,0,0,125.5,15a4,4,0,0,0-1.65-.4,5.23,5.23,0,0,0-.83.07,2.12,2.12,0,0,0-.76.28,1.85,1.85,0,0,0-.57.52,1.4,1.4,0,0,0-.23.83,1.35,1.35,0,0,0,.18.72,1.51,1.51,0,0,0,.53.5,4.17,4.17,0,0,0,.83.4c0.31,0.13.67,0.24,1.08,0.38,0.58,0.19,1.17.4,1.8,0.63a6.74,6.74,0,0,1,1.7.93,4.83,4.83,0,0,1,1.27,1.43,4,4,0,0,1,.5,2.12,5.55,5.55,0,0,1-.54,2.53,5.15,5.15,0,0,1-1.45,1.76,6.22,6.22,0,0,1-2.09,1,8.73,8.73,0,0,1-2.42.33,10,10,0,0,1-3.53-.64,7.37,7.37,0,0,1-2.83-1.81l2.69-2.73a5,5,0,0,0,1.64,1.29,4.5,4.5,0,0,0,2,.51,4.14,4.14,0,0,0,.88-0.1,2.19,2.19,0,0,0,.76-0.31,1.7,1.7,0,0,0,.52-0.58,1.85,1.85,0,0,0,.19-0.86A1.36,1.36,0,0,0,125,23a2.28,2.28,0,0,0-.68-0.61,6,6,0,0,0-1.1-.5l-1.5-.49a12.15,12.15,0,0,1-1.59-.62,5.3,5.3,0,0,1-1.39-.93,4.12,4.12,0,0,1-1-1.37,4.55,4.55,0,0,1-.38-2,4.84,4.84,0,0,1,.58-2.42,5,5,0,0,1,1.51-1.65,6.75,6.75,0,0,1,2.11-1A9.65,9.65,0,0,1,123.94,11.24Z" transform="translate(-7.16 -9.46)"/></g><g class="cls-2"><g class="cls-2"><g class="cls-48"><g class="cls-2"><path class="cls-6" d="M158.15,24.23l-1.74-1.74a5.26,5.26,0,0,0,1.29.92l1.74,1.74a5.26,5.26,0,0,1-1.29-.92" transform="translate(-7.16 -9.46)"/><path class="cls-7" d="M159.44,25.16l-1.74-1.74,0.06,0a5,5,0,0,0,.91.36l1.74,1.74a5,5,0,0,1-.91-0.36l-0.06,0" transform="translate(-7.16 -9.46)"/><path class="cls-8" d="M160.41,25.54l-1.74-1.74a4.23,4.23,0,0,0,.68.13l1.74,1.74a4.23,4.23,0,0,1-.68-0.13" transform="translate(-7.16 -9.46)"/><path class="cls-9" d="M161.09,25.68l-1.74-1.74,0.43,0H160l1.74,1.74h-0.17l-0.43,0" transform="translate(-7.16 -9.46)"/><path class="cls-10" d="M161.7,25.7L160,24a4.2,4.2,0,0,0,.65-0.08l1.74,1.74a4.2,4.2,0,0,1-.65.08" transform="translate(-7.16 -9.46)"/><path class="cls-11" d="M162.35,25.61l-1.74-1.74h0.06a2.54,2.54,0,0,0,.41-0.12l1.74,1.74a2.54,2.54,0,0,1-.41.12h-0.06" transform="translate(-7.16 -9.46)"/><path class="cls-4" d="M162.82,25.48l-1.74-1.74a1.92,1.92,0,0,0,.35-0.18,1.59,1.59,0,0,0,.51-0.58,1.86,1.86,0,0,0,.2-0.86,1.36,1.36,0,0,0-.24-0.82,2,2,0,0,0-.21-0.24l1.74,1.74a2,2,0,0,1,.21.24,1.36,1.36,0,0,1,.24.82,1.86,1.86,0,0,1-.2.86,1.59,1.59,0,0,1-.51.58,1.92,1.92,0,0,1-.35.18" transform="translate(-7.16 -9.46)"/></g></g></g><g class="cls-2"><g class="cls-49"><g class="cls-2"><path class="cls-4" d="M155.28,26.75L153.54,25l-0.11-.11,1.74,1.74,0.11,0.11" transform="translate(-7.16 -9.46)"/></g></g></g><polygon class="cls-14" points="148.01 17.17 146.27 15.43 148.95 12.69 150.7 14.44 148.01 17.17"/><g class="cls-2"><g class="cls-50"><g class="cls-2"><path class="cls-4" d="M165.54,16.08l-1.74-1.74a3.45,3.45,0,0,0-.28-0.32l1.74,1.74a3.45,3.45,0,0,1,.28.32" transform="translate(-7.16 -9.46)"/></g></g></g><g class="cls-2"><g class="cls-51"><g class="cls-2"><path class="cls-6" d="M160.52,17.28l-1.74-1.74a1.8,1.8,0,0,0,.33.26l0.24,0.14,1.74,1.74-0.24-.14a1.8,1.8,0,0,1-.33-0.26" transform="translate(-7.16 -9.46)"/><path class="cls-7" d="M161.09,17.68l-1.74-1.74a5.08,5.08,0,0,0,.59.26c0.32,0.13.68,0.24,1.08,0.38,0.58,0.19,1.18.4,1.8,0.63a7,7,0,0,1,.81.36l1.74,1.74a7,7,0,0,0-.81-0.36c-0.62-.22-1.22-0.44-1.8-0.63-0.4-.13-0.76-0.25-1.08-0.38a5.08,5.08,0,0,1-.59-0.26" transform="translate(-7.16 -9.46)"/><path class="cls-6" d="M165.37,19.31l-1.74-1.74a6.42,6.42,0,0,1,.89.57,5,5,0,0,1,.49.43l1.74,1.74a5,5,0,0,0-.49-0.43,6.42,6.42,0,0,0-.89-0.57" transform="translate(-7.16 -9.46)"/></g></g></g><g class="cls-2"><g class="cls-52"><g class="cls-2"><path class="cls-9" d="M162.6,11.24l-1.74-1.74a7.86,7.86,0,0,1,.85,0l1.74,1.74a7.86,7.86,0,0,0-.85,0" transform="translate(-7.16 -9.46)"/><path class="cls-8" d="M163.45,11.28l-1.74-1.74a8.93,8.93,0,0,1,1.44.28l1.74,1.74a8.93,8.93,0,0,0-1.44-.28" transform="translate(-7.16 -9.46)"/><path class="cls-7" d="M164.89,11.56l-1.74-1.74,0.64,0.2a8,8,0,0,1,1.06.46l1.74,1.74a8,8,0,0,0-1.06-.46l-0.64-.2" transform="translate(-7.16 -9.46)"/><path class="cls-6" d="M166.59,12.23l-1.74-1.74a7.37,7.37,0,0,1,1.57,1.1l1.74,1.74a7.37,7.37,0,0,0-1.57-1.1" transform="translate(-7.16 -9.46)"/></g></g></g><g class="cls-2"><g class="cls-53"><g class="cls-2"><path class="cls-4" d="M157.24,19.76L155.5,18a4.33,4.33,0,0,1-.85-1.25,4.69,4.69,0,0,1-.37-2,4.75,4.75,0,0,1,.58-2.42,5,5,0,0,1,1.51-1.65,6.24,6.24,0,0,1,1.23-.66l1.74,1.74a6.24,6.24,0,0,0-1.23.66,5,5,0,0,0-1.51,1.65,4.75,4.75,0,0,0-.58,2.42,4.69,4.69,0,0,0,.37,2,4.33,4.33,0,0,0,.85,1.25" transform="translate(-7.16 -9.46)"/><path class="cls-11" d="M159.34,11.83l-1.74-1.74a7.24,7.24,0,0,1,.89-0.29l0.44-.1,1.74,1.74-0.44.1a7.24,7.24,0,0,0-.89.29" transform="translate(-7.16 -9.46)"/><path class="cls-10" d="M160.67,11.43l-1.74-1.74a9.63,9.63,0,0,1,1.5-.19l1.74,1.74a9.63,9.63,0,0,0-1.5.19" transform="translate(-7.16 -9.46)"/><path class="cls-9" d="M162.17,11.25L160.43,9.5h0.43l1.74,1.74h-0.43" transform="translate(-7.16 -9.46)"/></g></g></g><path class="cls-15" d="M162.6,11.24a8.83,8.83,0,0,1,2.93.53,7.56,7.56,0,0,1,2.62,1.56l-2.62,2.76A3.64,3.64,0,0,0,164.16,15a3.93,3.93,0,0,0-1.64-.4,5.14,5.14,0,0,0-.83.07,2,2,0,0,0-.76.28,1.85,1.85,0,0,0-.57.52,1.4,1.4,0,0,0-.23.83,1.35,1.35,0,0,0,.17.72,1.59,1.59,0,0,0,.53.5,4.72,4.72,0,0,0,.83.4c0.32,0.13.68,0.24,1.08,0.38,0.58,0.19,1.18.4,1.8,0.63a6.65,6.65,0,0,1,1.71.93,5.1,5.1,0,0,1,1.27,1.43,4.12,4.12,0,0,1,.5,2.12,5.55,5.55,0,0,1-.54,2.53A5.15,5.15,0,0,1,166,27.71a6.19,6.19,0,0,1-2.1,1,8.69,8.69,0,0,1-2.42.33,10,10,0,0,1-3.53-.64,7.41,7.41,0,0,1-2.82-1.81l2.68-2.73a5,5,0,0,0,1.64,1.29,4.44,4.44,0,0,0,2,.51,4.16,4.16,0,0,0,.89-0.1,2.19,2.19,0,0,0,.76-0.31,1.59,1.59,0,0,0,.51-0.58,1.86,1.86,0,0,0,.2-0.86,1.36,1.36,0,0,0-.24-0.82,2.28,2.28,0,0,0-.68-0.61,5.83,5.83,0,0,0-1.11-.5l-1.49-.49a12.79,12.79,0,0,1-1.6-.62,5.45,5.45,0,0,1-1.39-.93,4.25,4.25,0,0,1-1-1.37,4.69,4.69,0,0,1-.37-2,4.75,4.75,0,0,1,.58-2.42,5,5,0,0,1,1.51-1.65,6.57,6.57,0,0,1,2.11-1A9.65,9.65,0,0,1,162.6,11.24Z" transform="translate(-7.16 -9.46)"/></g><g class="cls-2"><polygon class="cls-14" points="142.78 19.18 141.03 17.44 137.32 11.44 139.07 13.19 142.78 19.18"/><polygon class="cls-14" points="130.59 19.18 128.84 17.44 134.81 8.47 136.55 10.22 130.59 19.18"/><polygon class="cls-14" points="139.19 7.48 137.45 5.74 140.58 0.46 142.32 2.2 139.19 7.48"/><polygon class="cls-13" points="142.32 2.2 140.58 0.46 145.34 0.46 147.09 2.2 142.32 2.2"/><polygon class="cls-15" points="147.09 2.2 141.71 10.22 147.84 19.18 142.78 19.18 139.07 13.19 135.49 19.18 130.59 19.18 136.55 10.22 131.09 2.2 136.03 2.2 139.19 7.48 142.32 2.2 147.09 2.2"/><polygon class="cls-14" points="136.55 10.22 134.81 8.47 129.35 0.46 131.09 2.2 136.55 10.22"/><polygon class="cls-13" points="131.09 2.2 129.35 0.46 134.29 0.46 136.03 2.2 131.09 2.2"/></g><g class="cls-2"><polygon class="cls-15" points="129.05 2.2 129.03 19.18 124.91 19.18 124.93 2.2 129.05 2.2"/><polygon class="cls-14" points="124.91 19.18 123.17 17.44 123.19 0.46 124.93 2.2 124.91 19.18"/><polygon class="cls-13" points="124.93 2.2 123.19 0.46 127.31 0.46 129.05 2.2 124.93 2.2"/></g><g class="cls-2"><polygon class="cls-14" points="181.44 19.18 179.7 17.44 175.98 11.44 177.73 13.19 181.44 19.18"/><polygon class="cls-14" points="169.25 19.18 167.51 17.44 173.47 8.47 175.21 10.22 169.25 19.18"/><polygon class="cls-14" points="177.86 7.48 176.12 5.74 179.23 0.46 180.98 2.2 177.86 7.48"/><polygon class="cls-13" points="180.98 2.2 179.23 0.46 184.01 0.46 185.75 2.2 180.98 2.2"/><polygon class="cls-15" points="185.75 2.2 180.37 10.22 186.5 19.18 181.44 19.18 177.73 13.19 174.15 19.18 169.25 19.18 175.21 10.22 169.75 2.2 174.7 2.2 177.86 7.48 180.98 2.2 185.75 2.2"/><polygon class="cls-14" points="175.21 10.22 173.47 8.47 168.01 0.46 169.75 2.2 175.21 10.22"/><polygon class="cls-13" points="169.75 2.2 168.01 0.46 172.96 0.46 174.7 2.2 169.75 2.2"/></g><g class="cls-2"><polygon class="cls-15" points="167.72 2.2 167.7 19.18 163.57 19.18 163.59 2.2 167.72 2.2"/><polygon class="cls-14" points="163.57 19.18 161.83 17.44 161.85 0.46 163.59 2.2 163.57 19.18"/><polygon class="cls-13" points="163.59 2.2 161.85 0.46 165.98 0.46 167.72 2.2 163.59 2.2"/></g></svg>